<svg width="19" height="13" viewBox="0 0 19 13" fill="none" xmlns="http://www.w3.org/2000/svg">
<rect x="0.5" y="0.5" width="18" height="12" rx="1.5" stroke="black" stroke-opacity="0.4"/>
<path d="M5.44727 10.0879C5.11198 10.0879 4.81087 10.0228 4.54395 9.89258C4.28027 9.76237 4.07194 9.57845 3.91895 9.34082C3.76921 9.09993 3.69434 8.81673 3.69434 8.49121V8.48145C3.69434 8.16569 3.77246 7.89388 3.92871 7.66602C4.08496 7.4349 4.31445 7.25423 4.61719 7.12402C4.91992 6.99382 5.28776 6.91732 5.7207 6.89453L7.69336 6.77246V7.57324L5.8916 7.69043C5.5498 7.70996 5.29753 7.78158 5.13477 7.90527C4.97201 8.02897 4.89062 8.2015 4.89062 8.42285V8.43262C4.89062 8.66048 4.97689 8.83789 5.14941 8.96484C5.3252 9.0918 5.54818 9.15527 5.81836 9.15527C6.0625 9.15527 6.2806 9.10645 6.47266 9.00879C6.66471 8.91113 6.81608 8.7793 6.92676 8.61328C7.03743 8.44401 7.09277 8.25358 7.09277 8.04199V6.35254C7.09277 6.08561 7.00814 5.88216 6.83887 5.74219C6.6696 5.59896 6.41895 5.52734 6.08691 5.52734C5.81022 5.52734 5.58398 5.57617 5.4082 5.67383C5.23242 5.76823 5.11361 5.90332 5.05176 6.0791L5.04688 6.09863H3.89941L3.9043 6.05469C3.94336 5.75521 4.06055 5.49316 4.25586 5.26855C4.45117 5.04395 4.70996 4.86979 5.03223 4.74609C5.35449 4.6224 5.72559 4.56055 6.14551 4.56055C6.60775 4.56055 6.99837 4.63216 7.31738 4.77539C7.63639 4.91536 7.87891 5.12044 8.04492 5.39062C8.21094 5.65755 8.29395 5.97819 8.29395 6.35254V10H7.09277V9.26758H7.00977C6.91211 9.43685 6.78516 9.58333 6.62891 9.70703C6.47591 9.83073 6.30013 9.92513 6.10156 9.99023C5.90299 10.0553 5.6849 10.0879 5.44727 10.0879ZM9.80273 10V2.59766H11.0186V10H9.80273ZM14.6465 10.0244C14.0345 10.0244 13.5934 9.91211 13.3232 9.6875C13.0531 9.46289 12.918 9.09505 12.918 8.58398V5.60547H12.0879V4.66309H12.918V3.35449H14.1533V4.66309H15.2764V5.60547H14.1533V8.2959C14.1533 8.55957 14.2087 8.75326 14.3193 8.87695C14.4333 8.9974 14.6156 9.05762 14.8662 9.05762C14.9541 9.05762 15.0257 9.05599 15.0811 9.05273C15.1396 9.04622 15.2048 9.03971 15.2764 9.0332V9.9707C15.1917 9.98698 15.0941 10 14.9834 10.0098C14.876 10.0195 14.7637 10.0244 14.6465 10.0244Z" fill="black" fill-opacity="0.4"/>
</svg>
