<svg width="23" height="13" viewBox="0 0 23 13" fill="none" xmlns="http://www.w3.org/2000/svg">
<rect x="0.5" y="0.5" width="22" height="12" rx="1.5" stroke="black" stroke-opacity="0.4"/>
<path d="M6.16797 10.1074C5.63086 10.1074 5.17188 9.99674 4.79102 9.77539C4.41016 9.55404 4.11882 9.23503 3.91699 8.81836C3.71517 8.40169 3.61426 7.90365 3.61426 7.32422V7.31445C3.61426 6.73828 3.71517 6.24512 3.91699 5.83496C4.11882 5.4248 4.41016 5.11068 4.79102 4.89258C5.17188 4.67122 5.62923 4.56055 6.16309 4.56055C6.62207 4.56055 7.01595 4.6403 7.34473 4.7998C7.67676 4.95605 7.9388 5.17415 8.13086 5.4541C8.32617 5.73079 8.44661 6.05469 8.49219 6.42578V6.44531H7.34473L7.33984 6.43066C7.28451 6.17025 7.15755 5.95703 6.95898 5.79102C6.76367 5.625 6.5 5.54199 6.16797 5.54199C5.89128 5.54199 5.65365 5.61198 5.45508 5.75195C5.25977 5.89193 5.11003 6.09375 5.00586 6.35742C4.90169 6.62109 4.84961 6.9401 4.84961 7.31445V7.32422C4.84961 7.70182 4.90169 8.02572 5.00586 8.2959C5.11328 8.56283 5.26465 8.7679 5.45996 8.91113C5.65527 9.05111 5.89128 9.12109 6.16797 9.12109C6.48372 9.12109 6.73763 9.04948 6.92969 8.90625C7.125 8.76302 7.26009 8.55143 7.33496 8.27148L7.34473 8.25195L8.4873 8.24707L8.48242 8.29102C8.42383 8.65234 8.29688 8.96973 8.10156 9.24316C7.90951 9.5166 7.65234 9.72982 7.33008 9.88281C7.00781 10.0326 6.62044 10.1074 6.16797 10.1074ZM11.8174 10.0244C11.2054 10.0244 10.7643 9.91211 10.4941 9.6875C10.224 9.46289 10.0889 9.09505 10.0889 8.58398V5.60547H9.25879V4.66309H10.0889V3.35449H11.3242V4.66309H12.4473V5.60547H11.3242V8.2959C11.3242 8.55957 11.3796 8.75326 11.4902 8.87695C11.6042 8.9974 11.7865 9.05762 12.0371 9.05762C12.125 9.05762 12.1966 9.05599 12.252 9.05273C12.3105 9.04622 12.3757 9.03971 12.4473 9.0332V9.9707C12.3626 9.98698 12.265 10 12.1543 10.0098C12.0469 10.0195 11.9346 10.0244 11.8174 10.0244ZM13.6631 10V4.66309H14.8789V5.4834H14.9619C15.0531 5.19694 15.2158 4.97396 15.4502 4.81445C15.6878 4.65495 15.9824 4.5752 16.334 4.5752C16.4251 4.5752 16.5146 4.58171 16.6025 4.59473C16.6937 4.60449 16.7686 4.61751 16.8271 4.63379V5.72266C16.7295 5.69987 16.6302 5.68359 16.5293 5.67383C16.4316 5.66081 16.3291 5.6543 16.2217 5.6543C15.9515 5.6543 15.7155 5.70475 15.5137 5.80566C15.3118 5.90658 15.1556 6.05143 15.0449 6.24023C14.9342 6.42578 14.8789 6.64551 14.8789 6.89941V10H13.6631ZM17.8623 10V2.59766H19.0781V10H17.8623Z" fill="black" fill-opacity="0.4"/>
</svg>
