<svg width="14" height="13" viewBox="0 0 14 13" fill="none" xmlns="http://www.w3.org/2000/svg">
<rect x="0.5" y="0.5" width="13" height="12" rx="1.5" stroke="black" stroke-opacity="0.4"/>
<path d="M4.16797 10V2.9541H6.80957C7.50944 2.9541 8.10514 3.09082 8.59668 3.36426C9.09147 3.6377 9.46908 4.03483 9.72949 4.55566C9.99316 5.0765 10.125 5.70475 10.125 6.44043V6.4502C10.125 7.20215 9.99479 7.84342 9.73438 8.37402C9.47396 8.90137 9.09635 9.30501 8.60156 9.58496C8.11003 9.86165 7.5127 10 6.80957 10H4.16797ZM5.42773 8.94043H6.64355C7.10905 8.94043 7.50618 8.8444 7.83496 8.65234C8.16374 8.46029 8.41276 8.18034 8.58203 7.8125C8.75456 7.44466 8.84082 6.99707 8.84082 6.46973V6.45996C8.84082 5.94564 8.75293 5.50618 8.57715 5.1416C8.40462 4.77376 8.15397 4.49382 7.8252 4.30176C7.49642 4.1097 7.10254 4.01367 6.64355 4.01367H5.42773V8.94043Z" fill="black" fill-opacity="0.4"/>
</svg>
