<svg width="31" height="13" viewBox="0 0 31 13" fill="none" xmlns="http://www.w3.org/2000/svg">
<rect x="0.5" y="0.5" width="30" height="12" rx="1.5" stroke="black" stroke-opacity="0.4"/>
<path d="M3.89355 10V4.66309H5.10938V5.49316H5.19238C5.30632 5.19694 5.49023 4.96745 5.74414 4.80469C6.0013 4.64193 6.30566 4.56055 6.65723 4.56055C6.89811 4.56055 7.11458 4.59961 7.30664 4.67773C7.50195 4.75586 7.6696 4.86654 7.80957 5.00977C7.94954 5.15299 8.05697 5.32389 8.13184 5.52246H8.21973C8.30762 5.3304 8.42969 5.16276 8.58594 5.01953C8.74544 4.87305 8.93099 4.76074 9.14258 4.68262C9.35742 4.60124 9.58854 4.56055 9.83594 4.56055C10.194 4.56055 10.5 4.63216 10.7539 4.77539C11.0111 4.91536 11.208 5.11719 11.3447 5.38086C11.4847 5.64453 11.5547 5.96029 11.5547 6.32812V10H10.3389V6.62598C10.3389 6.3916 10.3031 6.19792 10.2314 6.04492C10.1631 5.89193 10.0573 5.77637 9.91406 5.69824C9.77083 5.62012 9.59017 5.58105 9.37207 5.58105C9.16048 5.58105 8.97656 5.62988 8.82031 5.72754C8.66406 5.82194 8.54199 5.95052 8.4541 6.11328C8.36947 6.27604 8.32715 6.45996 8.32715 6.66504V10H7.11133V6.53809C7.11133 6.33952 7.07227 6.16862 6.99414 6.02539C6.91927 5.88216 6.80859 5.77311 6.66211 5.69824C6.51888 5.62012 6.34798 5.58105 6.14941 5.58105C5.95085 5.58105 5.77181 5.63314 5.6123 5.7373C5.45605 5.83822 5.33236 5.97819 5.24121 6.15723C5.15332 6.33301 5.10938 6.53158 5.10938 6.75293V10H3.89355ZM15.2705 10.1074C14.7399 10.1074 14.2842 9.99512 13.9033 9.77051C13.5257 9.5459 13.2344 9.22689 13.0293 8.81348C12.8242 8.40007 12.7217 7.91016 12.7217 7.34375V7.33887C12.7217 6.77897 12.8226 6.29069 13.0244 5.87402C13.2295 5.45736 13.5192 5.13509 13.8936 4.90723C14.2679 4.67611 14.7074 4.56055 15.2119 4.56055C15.7197 4.56055 16.1559 4.67285 16.5205 4.89746C16.8883 5.11882 17.1715 5.42969 17.3701 5.83008C17.5687 6.23047 17.668 6.69922 17.668 7.23633V7.63672H13.332V6.82129H17.0723L16.4961 7.58301V7.09961C16.4961 6.74479 16.4424 6.4502 16.335 6.21582C16.2275 5.98145 16.0778 5.80566 15.8857 5.68848C15.6969 5.57129 15.4772 5.5127 15.2266 5.5127C14.9759 5.5127 14.7529 5.57454 14.5576 5.69824C14.3656 5.81868 14.2126 5.99772 14.0986 6.23535C13.988 6.46973 13.9326 6.75781 13.9326 7.09961V7.58789C13.9326 7.91667 13.988 8.19824 14.0986 8.43262C14.2093 8.66374 14.3656 8.84277 14.5674 8.96973C14.7725 9.09342 15.015 9.15527 15.2949 9.15527C15.513 9.15527 15.7002 9.12435 15.8564 9.0625C16.016 8.9974 16.1445 8.9209 16.2422 8.83301C16.3398 8.74186 16.4082 8.6556 16.4473 8.57422L16.4619 8.54004H17.6143L17.6045 8.58398C17.5622 8.75651 17.484 8.93229 17.3701 9.11133C17.2594 9.28711 17.1081 9.4515 16.916 9.60449C16.7272 9.75423 16.4961 9.8763 16.2227 9.9707C15.9492 10.0618 15.6318 10.1074 15.2705 10.1074ZM20.9834 10.0244C20.3714 10.0244 19.9303 9.91211 19.6602 9.6875C19.39 9.46289 19.2549 9.09505 19.2549 8.58398V5.60547H18.4248V4.66309H19.2549V3.35449H20.4902V4.66309H21.6133V5.60547H20.4902V8.2959C20.4902 8.55957 20.5456 8.75326 20.6562 8.87695C20.7702 8.9974 20.9525 9.05762 21.2031 9.05762C21.291 9.05762 21.3626 9.05599 21.418 9.05273C21.4766 9.04622 21.5417 9.03971 21.6133 9.0332V9.9707C21.5286 9.98698 21.431 10 21.3203 10.0098C21.2129 10.0195 21.1006 10.0244 20.9834 10.0244ZM24.2842 10.0879C23.9489 10.0879 23.6478 10.0228 23.3809 9.89258C23.1172 9.76237 22.9089 9.57845 22.7559 9.34082C22.6061 9.09993 22.5312 8.81673 22.5312 8.49121V8.48145C22.5312 8.16569 22.6094 7.89388 22.7656 7.66602C22.9219 7.4349 23.1514 7.25423 23.4541 7.12402C23.7568 6.99382 24.1247 6.91732 24.5576 6.89453L26.5303 6.77246V7.57324L24.7285 7.69043C24.3867 7.70996 24.1344 7.78158 23.9717 7.90527C23.8089 8.02897 23.7275 8.2015 23.7275 8.42285V8.43262C23.7275 8.66048 23.8138 8.83789 23.9863 8.96484C24.1621 9.0918 24.3851 9.15527 24.6553 9.15527C24.8994 9.15527 25.1175 9.10645 25.3096 9.00879C25.5016 8.91113 25.653 8.7793 25.7637 8.61328C25.8743 8.44401 25.9297 8.25358 25.9297 8.04199V6.35254C25.9297 6.08561 25.8451 5.88216 25.6758 5.74219C25.5065 5.59896 25.2559 5.52734 24.9238 5.52734C24.6471 5.52734 24.4209 5.57617 24.2451 5.67383C24.0693 5.76823 23.9505 5.90332 23.8887 6.0791L23.8838 6.09863H22.7363L22.7412 6.05469C22.7803 5.75521 22.8975 5.49316 23.0928 5.26855C23.2881 5.04395 23.5469 4.86979 23.8691 4.74609C24.1914 4.6224 24.5625 4.56055 24.9824 4.56055C25.4447 4.56055 25.8353 4.63216 26.1543 4.77539C26.4733 4.91536 26.7158 5.12044 26.8818 5.39062C27.0479 5.65755 27.1309 5.97819 27.1309 6.35254V10H25.9297V9.26758H25.8467C25.749 9.43685 25.6221 9.58333 25.4658 9.70703C25.3128 9.83073 25.137 9.92513 24.9385 9.99023C24.7399 10.0553 24.5218 10.0879 24.2842 10.0879Z" fill="black" fill-opacity="0.4"/>
</svg>
