<svg width="14" height="13" viewBox="0 0 14 13" fill="none" xmlns="http://www.w3.org/2000/svg">
<rect x="0.5" y="0.5" width="13" height="12" rx="1.5" stroke="black" stroke-opacity="0.4"/>
<path d="M5.34473 2.96875C5.54004 2.96875 5.71419 3.01921 5.86719 3.12012C6.02018 3.21777 6.139 3.35775 6.22363 3.54004L8.64062 8.80859C8.68945 8.90625 8.77409 8.95508 8.89453 8.95508H10.4375C10.5872 8.95508 10.7126 9.00553 10.8135 9.10645C10.9176 9.20736 10.9697 9.32943 10.9697 9.47266C10.9697 9.61589 10.9176 9.73796 10.8135 9.83887C10.7093 9.93652 10.584 9.98535 10.4375 9.98535H8.64551C8.43392 9.98535 8.25814 9.94141 8.11816 9.85352C7.97819 9.76237 7.861 9.61589 7.7666 9.41406L5.33984 4.14551C5.31706 4.09342 5.28451 4.05599 5.24219 4.0332C5.20312 4.01042 5.15755 3.99902 5.10547 3.99902H3.55762C3.40788 3.99902 3.28092 3.9502 3.17676 3.85254C3.07585 3.75163 3.02539 3.62793 3.02539 3.48145C3.02539 3.33822 3.07585 3.21777 3.17676 3.12012C3.28092 3.01921 3.40788 2.96875 3.55762 2.96875H5.34473ZM10.4375 2.96875C10.5872 2.96875 10.7126 3.01758 10.8135 3.11523C10.9144 3.21289 10.9648 3.33333 10.9648 3.47656C10.9648 3.62305 10.9144 3.74512 10.8135 3.84277C10.7126 3.94043 10.5872 3.98926 10.4375 3.98926H8.14746C7.99772 3.98926 7.8724 3.94043 7.77148 3.84277C7.67057 3.74512 7.62012 3.62305 7.62012 3.47656C7.62012 3.33333 7.67057 3.21289 7.77148 3.11523C7.8724 3.01758 7.99772 2.96875 8.14746 2.96875H10.4375Z" fill="black" fill-opacity="0.4"/>
</svg>
