<svg width="13" height="13" viewBox="0 0 13 13" fill="none" xmlns="http://www.w3.org/2000/svg">
<rect x="0.5" y="0.5" width="12" height="12" rx="1.5" stroke="black" stroke-opacity="0.4"/>
<path d="M4.69824 7.6709V6.65527H6.57324C7.02572 6.65527 7.37728 6.53971 7.62793 6.30859C7.87858 6.07422 8.00391 5.74544 8.00391 5.32227V5.3125C8.00391 4.88607 7.87858 4.55729 7.62793 4.32617C7.37728 4.09505 7.02572 3.97949 6.57324 3.97949H4.69824V2.9541H6.88086C7.35938 2.9541 7.77767 3.05176 8.13574 3.24707C8.49382 3.44238 8.77376 3.71745 8.97559 4.07227C9.17741 4.42383 9.27832 4.83561 9.27832 5.30762V5.31738C9.27832 5.78613 9.17741 6.19792 8.97559 6.55273C8.77376 6.9043 8.49382 7.17936 8.13574 7.37793C7.77767 7.57324 7.35938 7.6709 6.88086 7.6709H4.69824ZM4.06836 10V2.9541H5.32812V10H4.06836Z" fill="black" fill-opacity="0.4"/>
</svg>
