<svg width="14" height="13" viewBox="0 0 14 13" fill="none" xmlns="http://www.w3.org/2000/svg">
<rect x="0.5" y="0.5" width="13" height="12" rx="1.5" stroke="black" stroke-opacity="0.4"/>
<path d="M5.79883 10.127C5.48958 10.127 5.25358 10.0423 5.09082 9.87305C4.93132 9.70378 4.85156 9.47103 4.85156 9.1748V7.58789H3.42578C3.23372 7.58789 3.07422 7.53581 2.94727 7.43164C2.82357 7.32422 2.76172 7.18262 2.76172 7.00684C2.76172 6.89616 2.78451 6.80013 2.83008 6.71875C2.87891 6.63737 2.95215 6.54785 3.0498 6.4502L6.46289 3.01758C6.54102 2.93945 6.62565 2.87923 6.7168 2.83691C6.80794 2.79134 6.90234 2.76855 7 2.76855C7.10091 2.76855 7.19531 2.79134 7.2832 2.83691C7.37435 2.87923 7.45898 2.93945 7.53711 3.01758L10.9502 6.4502C11.0446 6.54785 11.1162 6.63737 11.165 6.71875C11.2139 6.80013 11.2383 6.89616 11.2383 7.00684C11.2383 7.18262 11.1748 7.32422 11.0479 7.43164C10.9242 7.53581 10.7663 7.58789 10.5742 7.58789H9.14844V9.1748C9.14844 9.47103 9.06706 9.70378 8.9043 9.87305C8.74154 10.0423 8.50716 10.127 8.20117 10.127H5.79883ZM6.02344 9.18945H7.97168C8.03027 9.18945 8.07747 9.17155 8.11328 9.13574C8.15234 9.09668 8.17188 9.04785 8.17188 8.98926V6.87988C8.17188 6.79525 8.21582 6.75293 8.30371 6.75293H9.87598C9.89225 6.75293 9.90039 6.74642 9.90039 6.7334C9.90039 6.72363 9.89551 6.71387 9.88574 6.7041L7.04395 3.87207C7.03092 3.85905 7.01628 3.85254 7 3.85254C6.98047 3.85254 6.96582 3.85905 6.95605 3.87207L4.11426 6.7041C4.10449 6.71387 4.09961 6.72363 4.09961 6.7334C4.09961 6.74642 4.10938 6.75293 4.12891 6.75293H5.69629C5.78418 6.75293 5.82812 6.79525 5.82812 6.87988V8.98926C5.82812 9.05111 5.84603 9.09993 5.88184 9.13574C5.91764 9.17155 5.96484 9.18945 6.02344 9.18945Z" fill="black" fill-opacity="0.4"/>
</svg>
