<svg width="23" height="13" viewBox="0 0 23 13" fill="none" xmlns="http://www.w3.org/2000/svg">
<rect x="0.5" y="0.5" width="22" height="12" rx="1.5" stroke="black" stroke-opacity="0.4"/>
<path d="M6.2998 10.0244C5.68783 10.0244 5.24674 9.91211 4.97656 9.6875C4.70638 9.46289 4.57129 9.09505 4.57129 8.58398V5.60547H3.74121V4.66309H4.57129V3.35449H5.80664V4.66309H6.92969V5.60547H5.80664V8.2959C5.80664 8.55957 5.86198 8.75326 5.97266 8.87695C6.08659 8.9974 6.26888 9.05762 6.51953 9.05762C6.60742 9.05762 6.67904 9.05599 6.73438 9.05273C6.79297 9.04622 6.85807 9.03971 6.92969 9.0332V9.9707C6.84505 9.98698 6.7474 10 6.63672 10.0098C6.5293 10.0195 6.41699 10.0244 6.2998 10.0244ZM9.60059 10.0879C9.2653 10.0879 8.96419 10.0228 8.69727 9.89258C8.43359 9.76237 8.22526 9.57845 8.07227 9.34082C7.92253 9.09993 7.84766 8.81673 7.84766 8.49121V8.48145C7.84766 8.16569 7.92578 7.89388 8.08203 7.66602C8.23828 7.4349 8.46777 7.25423 8.77051 7.12402C9.07324 6.99382 9.44108 6.91732 9.87402 6.89453L11.8467 6.77246V7.57324L10.0449 7.69043C9.70312 7.70996 9.45085 7.78158 9.28809 7.90527C9.12533 8.02897 9.04395 8.2015 9.04395 8.42285V8.43262C9.04395 8.66048 9.13021 8.83789 9.30273 8.96484C9.47852 9.0918 9.7015 9.15527 9.97168 9.15527C10.2158 9.15527 10.4339 9.10645 10.626 9.00879C10.818 8.91113 10.9694 8.7793 11.0801 8.61328C11.1908 8.44401 11.2461 8.25358 11.2461 8.04199V6.35254C11.2461 6.08561 11.1615 5.88216 10.9922 5.74219C10.8229 5.59896 10.5723 5.52734 10.2402 5.52734C9.96354 5.52734 9.7373 5.57617 9.56152 5.67383C9.38574 5.76823 9.26693 5.90332 9.20508 6.0791L9.2002 6.09863H8.05273L8.05762 6.05469C8.09668 5.75521 8.21387 5.49316 8.40918 5.26855C8.60449 5.04395 8.86328 4.86979 9.18555 4.74609C9.50781 4.6224 9.87891 4.56055 10.2988 4.56055C10.7611 4.56055 11.1517 4.63216 11.4707 4.77539C11.7897 4.91536 12.0322 5.12044 12.1982 5.39062C12.3643 5.65755 12.4473 5.97819 12.4473 6.35254V10H11.2461V9.26758H11.1631C11.0654 9.43685 10.9385 9.58333 10.7822 9.70703C10.6292 9.83073 10.4535 9.92513 10.2549 9.99023C10.0563 10.0553 9.83822 10.0879 9.60059 10.0879ZM16.876 10.0879C16.6253 10.0879 16.3958 10.0521 16.1875 9.98047C15.9792 9.9056 15.7952 9.7998 15.6357 9.66309C15.4795 9.52311 15.3525 9.3571 15.2549 9.16504H15.1719V10H13.9561V2.59766H15.1719V5.5127H15.2549C15.3493 5.32064 15.4762 5.15462 15.6357 5.01465C15.7952 4.87467 15.9808 4.76725 16.1924 4.69238C16.404 4.61426 16.6318 4.5752 16.876 4.5752C17.3252 4.5752 17.7126 4.6875 18.0381 4.91211C18.3669 5.13346 18.6208 5.45085 18.7998 5.86426C18.9788 6.27441 19.0684 6.7627 19.0684 7.3291V7.33887C19.0684 7.89876 18.9772 8.38542 18.7949 8.79883C18.6159 9.21224 18.362 9.53125 18.0332 9.75586C17.7077 9.97721 17.3219 10.0879 16.876 10.0879ZM16.4951 9.0625C16.7718 9.0625 17.0094 8.99414 17.208 8.85742C17.4066 8.71745 17.5596 8.51888 17.667 8.26172C17.7744 8.00456 17.8281 7.69694 17.8281 7.33887V7.3291C17.8281 6.97103 17.7744 6.66341 17.667 6.40625C17.5596 6.14583 17.4066 5.94727 17.208 5.81055C17.0094 5.67057 16.7718 5.60059 16.4951 5.60059C16.2217 5.60059 15.984 5.67057 15.7822 5.81055C15.5804 5.95052 15.4242 6.14909 15.3135 6.40625C15.2061 6.66341 15.1523 6.97103 15.1523 7.3291V7.33887C15.1523 7.69368 15.2061 8.0013 15.3135 8.26172C15.4242 8.51888 15.5788 8.71745 15.7773 8.85742C15.9792 8.99414 16.2184 9.0625 16.4951 9.0625Z" fill="black" fill-opacity="0.4"/>
</svg>
