<svg width="24" height="13" viewBox="0 0 24 13" fill="none" xmlns="http://www.w3.org/2000/svg">
<rect x="0.5" y="0.5" width="23" height="12" rx="1.5" stroke="black" stroke-opacity="0.4"/>
<path d="M5.24219 10L3.79199 4.66309H5.0127L5.89648 8.67676H5.98438L7.00977 4.66309H8.16699L9.19727 8.67676H9.28516L10.1689 4.66309H11.375L9.9248 10H8.65527L7.61523 6.13281H7.53223L6.49707 10H5.24219ZM12.4395 10V4.66309H13.6504V10H12.4395ZM13.0498 3.76953C12.8512 3.76953 12.6803 3.69954 12.5371 3.55957C12.3939 3.4196 12.3223 3.25195 12.3223 3.05664C12.3223 2.85482 12.3939 2.68555 12.5371 2.54883C12.6803 2.40885 12.8512 2.33887 13.0498 2.33887C13.2484 2.33887 13.4176 2.40885 13.5576 2.54883C13.7008 2.68555 13.7725 2.85482 13.7725 3.05664C13.7725 3.25195 13.7008 3.4196 13.5576 3.55957C13.4176 3.69954 13.2484 3.76953 13.0498 3.76953ZM15.1494 10V4.66309H16.3652V5.4834H16.4482C16.5752 5.19368 16.7673 4.96745 17.0244 4.80469C17.2816 4.64193 17.6022 4.56055 17.9863 4.56055C18.582 4.56055 19.0378 4.73307 19.3535 5.07812C19.6693 5.42318 19.8271 5.91309 19.8271 6.54785V10H18.6113V6.83105C18.6113 6.41439 18.5234 6.10189 18.3477 5.89355C18.1751 5.68522 17.9049 5.58105 17.5371 5.58105C17.2962 5.58105 17.0879 5.63477 16.9121 5.74219C16.7363 5.84961 16.6012 6.00098 16.5068 6.19629C16.4124 6.3916 16.3652 6.62272 16.3652 6.88965V10H15.1494Z" fill="black" fill-opacity="0.4"/>
</svg>
