<?xml version="1.0" encoding="UTF-8"?>
<svg width="14px" height="14px" viewBox="0 0 14 14" version="1.1" xmlns="http://www.w3.org/2000/svg" xmlns:xlink="http://www.w3.org/1999/xlink">
    <title>Option 2_dark</title>
    <g id="Option-2_dark" stroke="none" stroke-width="1" fill="none" fill-rule="evenodd">
        <path d="M11.0070258,6 C11.1334895,6 11.2318501,5.90866511 11.2529274,5.76814988 C11.5409836,3.95550351 11.8641686,3.52693208 13.7751756,3.2529274 C13.9156909,3.23185012 14,3.13348946 14,3 C14,2.8735363 13.9156909,2.77517564 13.7751756,2.75409836 C11.8571429,2.48009368 11.618267,2.07259953 11.2529274,0.217798595 C11.2248244,0.0913348946 11.1334895,4.88498131e-15 11.0070258,4.88498131e-15 C10.8735363,4.88498131e-15 10.7751756,0.0913348946 10.7540984,0.224824356 C10.4660422,2.07259953 10.1498829,2.48009368 8.23887588,2.75409836 C8.09836066,2.78220141 8.00702576,2.8735363 8.00702576,3 C8.00702576,3.13348946 8.09836066,3.23185012 8.23887588,3.2529274 C10.1569087,3.52693208 10.4028103,3.92740047 10.7540984,5.77517564 C10.7822014,5.91569087 10.8805621,6 11.0070258,6 Z" id="Path" fill="#BF5AF2"></path>
        <g id="Pencil" transform="translate(0.172, 2.224)">
            <path d="M4.81096943,2.24362978 L8.60328164,6.03648403 C8.98206926,6.41527164 9.28555422,6.86248408 9.4976383,7.35439917 L10.8207006,10.4231551 L7.35439917,9.4976383 C6.86248408,9.28555422 6.41527164,8.98206926 6.03645345,8.60325107 L2.24362978,4.81096943 L4.81096943,2.24362978 Z M2.40551485,0.605057322 C2.66486762,0.603004601 2.92459099,0.65617863 3.16550077,0.764612139 L0.782130647,3.14739928 C0.671050497,2.89397491 0.616248167,2.62929203 0.618310403,2.36812709 C0.621891891,1.91456136 0.798131359,1.47507103 1.13660119,1.13660119 C1.48731739,0.785884996 1.94585368,0.608695442 2.40551485,0.605057322 Z" id="Combined-Shape" stroke="#389BFF" stroke-width="1.21"></path>
            <path d="M10.506,8.164 L11.3762654,10.1836291 C11.5746952,10.6438741 11.3624521,11.1778356 10.9022072,11.3762654 C10.6728839,11.4751357 10.4129523,11.4751357 10.1836291,11.3762654 L8.164,10.506 L10.506,8.164 Z M4.13119841,0.708801589 L9.03108125,5.60868442 C9.11487834,5.69248152 9.19545077,5.77920876 9.27266509,5.86866949 L5.86866949,9.27266509 C5.77920876,9.19545077 5.69248152,9.11487834 5.60868442,9.03108125 L0.708801589,4.13119841 C-0.236267196,3.18612962 -0.236267196,1.65387038 0.708801589,0.708801589 C1.65387038,-0.236267196 3.18612962,-0.236267196 4.13119841,0.708801589 Z" id="Combined-Shape" fill="#389BFF"></path>
        </g>
    </g>
</svg>
