<?xml version="1.0" encoding="UTF-8"?>
<svg width="14px" height="14px" viewBox="0 0 14 14" version="1.1" xmlns="http://www.w3.org/2000/svg" xmlns:xlink="http://www.w3.org/1999/xlink">
    <title>Option 2_Inactive_light</title>
    <g id="Option-2_Inactive_light" stroke="none" stroke-width="1" fill="none" fill-rule="evenodd">
        <path d="M11.0070258,6 C11.1334895,6 11.2318501,5.90866511 11.2529274,5.76814988 C11.5409836,3.95550351 11.8641686,3.52693208 13.7751756,3.2529274 C13.9156909,3.23185012 14,3.13348946 14,3 C14,2.8735363 13.9156909,2.77517564 13.7751756,2.75409836 C11.8571429,2.48009368 11.618267,2.07259953 11.2529274,0.217798595 C11.2248244,0.0913348946 11.1334895,4.88498131e-15 11.0070258,4.88498131e-15 C10.8735363,4.88498131e-15 10.7751756,0.0913348946 10.7540984,0.224824356 C10.4660422,2.07259953 10.1498829,2.48009368 8.23887588,2.75409836 C8.09836066,2.78220141 8.00702576,2.8735363 8.00702576,3 C8.00702576,3.13348946 8.09836066,3.23185012 8.23887588,3.2529274 C10.1569087,3.52693208 10.4028103,3.92740047 10.7540984,5.77517564 C10.7822014,5.91569087 10.8805621,6 11.0070258,6 Z" id="Path" fill="#BF5AF2"></path>
        <g id="Pencil" transform="translate(0.172, 2.224)" stroke="#007AFF" stroke-width="1.21">
            <path d="M2.42,0.605 C2.88449901,0.605 3.34899801,0.782200397 3.70339881,1.13660119 L8.60328164,6.03648403 C8.98206926,6.41527164 9.28555422,6.86248408 9.4976383,7.35439917 L10.8207006,10.4231551 L7.35439917,9.4976383 C6.86248408,9.28555422 6.41527164,8.98206926 6.03648403,8.60328164 L1.13660119,3.70339881 C0.782200397,3.34899801 0.605,2.88449901 0.605,2.42 C0.605,1.95550099 0.782200397,1.49100199 1.13660119,1.13660119 C1.49100199,0.782200397 1.95550099,0.605 2.42,0.605 Z" id="Combined-Shape"></path>
        </g>
    </g>
</svg>
