<?xml version="1.0" encoding="UTF-8"?>
<svg width="14px" height="14px" viewBox="0 0 14 14" version="1.1" xmlns="http://www.w3.org/2000/svg" xmlns:xlink="http://www.w3.org/1999/xlink">
    <title>nextedit_applied_dark</title>
    <g id="nextedit_applied_dark" stroke="none" stroke-width="1" fill="none" fill-rule="evenodd">
        <g id="Pencil" opacity="0.401274182" transform="translate(0.172, 2.224)" fill="#FFFFFF">
            <path d="M4.811,1.388 L9.03108125,5.60868442 C9.46398137,6.04158455 9.81082133,6.55268449 10.0532031,7.11487316 L11.3762654,10.1836291 C11.5746952,10.6438741 11.3624521,11.1778356 10.9022072,11.3762654 C10.6728839,11.4751357 10.4129523,11.4751357 10.1836291,11.3762654 L7.11487316,10.0532031 C6.55268449,9.81082133 6.04158455,9.46398137 5.60868442,9.03108125 L1.388,4.811 L4.811,1.388 Z M4.81,3.099 L3.099,4.81 L6.46428363,8.17548204 C6.73484621,8.44604462 7.04613786,8.67178419 7.38639161,8.84471553 L7.59392518,8.94207346 L9.964,9.964 L8.94207346,7.59392518 C8.79058483,7.24255726 8.58469091,6.91779806 8.33234156,6.63137915 L8.1754209,6.46422249 L4.81,3.099 Z M4.10390697,0.681930057 L0.682,4.103 L0.585786438,3.99879608 C-0.234314575,3.04804653 -0.193309524,1.6109127 0.708801589,0.708801589 C1.64482666,-0.227223476 3.15685786,-0.236180654 4.10390697,0.681930057 Z" id="Combined-Shape" fill-rule="nonzero"></path>
            <path d="M10.506,8.164 L11.3762654,10.1836291 C11.5746952,10.6438741 11.3624521,11.1778356 10.9022072,11.3762654 C10.6728839,11.4751357 10.4129523,11.4751357 10.1836291,11.3762654 L8.164,10.506 L10.506,8.164 Z M4.13119841,0.708801589 L9.03108125,5.60868442 C9.11487834,5.69248152 9.19545077,5.77920876 9.27266509,5.86866949 L5.86866949,9.27266509 C5.77920876,9.19545077 5.69248152,9.11487834 5.60868442,9.03108125 L0.708801589,4.13119841 C-0.236267196,3.18612962 -0.236267196,1.65387038 0.708801589,0.708801589 C1.65387038,-0.236267196 3.18612962,-0.236267196 4.13119841,0.708801589 Z" id="Combined-Shape"></path>
        </g>
        <g id="􀆅" transform="translate(7.5167, -0.1689)" fill="#30D158" fill-rule="nonzero">
            <path d="M2.68994141,6.32666016 C3.01578776,6.32666016 3.26074219,6.2047526 3.42480469,5.9609375 L6.55908203,1.30566406 C6.61832682,1.21907552 6.66162109,1.13191732 6.68896484,1.04418945 C6.71630859,0.956461589 6.72998047,0.872721354 6.72998047,0.79296875 C6.72998047,0.567382812 6.65079753,0.37882487 6.49243164,0.227294922 C6.33406576,0.075764974 6.13867188,0 5.90625,0 C5.74902344,0 5.61572266,0.0313313802 5.50634766,0.0939941406 C5.39697266,0.156656901 5.29329427,0.263183594 5.1953125,0.413574219 L2.67626953,4.34765625 L1.42871094,2.91210938 C1.26692708,2.72753906 1.06184896,2.63525391 0.813476562,2.63525391 C0.578776042,2.63525391 0.384521484,2.71101888 0.230712891,2.86254883 C0.0769042969,3.01407878 0,3.20377604 0,3.43164062 C0,3.53417969 0.0165201823,3.62988281 0.0495605469,3.71875 C0.0826009115,3.80761719 0.143554688,3.90218099 0.232421875,4.00244141 L1.98925781,6.01904297 C2.16927083,6.22412109 2.40283203,6.32666016 2.68994141,6.32666016 Z" id="Path"></path>
        </g>
    </g>
</svg>
