<?xml version="1.0" encoding="UTF-8"?>
<svg width="16px" height="16px" viewBox="0 0 16 16" version="1.1" xmlns="http://www.w3.org/2000/svg" xmlns:xlink="http://www.w3.org/1999/xlink">
    <title>nextedit_available_dark</title>
    <g id="nextedit_available_dark" stroke="none" stroke-width="1" fill="none" fill-rule="evenodd">
        <path d="M11.0070258,7 C11.1334895,7 11.2318501,6.90866511 11.2529274,6.76814988 C11.5409836,4.95550351 11.8641686,4.52693208 13.7751756,4.2529274 C13.9156909,4.23185012 14,4.13348946 14,4 C14,3.8735363 13.9156909,3.77517564 13.7751756,3.75409836 C11.8571429,3.48009368 11.618267,3.07259953 11.2529274,1.21779859 C11.2248244,1.09133489 11.1334895,1 11.0070258,1 C10.8735363,1 10.7751756,1.09133489 10.7540984,1.22482436 C10.4660422,3.07259953 10.1498829,3.48009368 8.23887588,3.75409836 C8.09836066,3.78220141 8.00702576,3.8735363 8.00702576,4 C8.00702576,4.13348946 8.09836066,4.23185012 8.23887588,4.2529274 C10.1569087,4.52693208 10.4028103,4.92740047 10.7540984,6.77517564 C10.7822014,6.91569087 10.8805621,7 11.0070258,7 Z" id="Path" fill="#BF5AF2"></path>
        <path d="M14.0056206,8.8 C14.0814988,8.8 14.1405152,8.74519906 14.1531616,8.66088993 C14.3259953,7.57330211 14.5199063,7.31615925 15.6665105,7.15175644 C15.7508197,7.13911007 15.8014052,7.08009368 15.8014052,7 C15.8014052,6.92412178 15.7508197,6.86510539 15.6665105,6.85245902 C14.5156909,6.68805621 14.3723653,6.44355972 14.1531616,5.33067916 C14.1362998,5.25480094 14.0814988,5.2 14.0056206,5.2 C13.9255269,5.2 13.8665105,5.25480094 13.8538642,5.33489461 C13.6810304,6.44355972 13.4913349,6.68805621 12.3447307,6.85245902 C12.2604215,6.86932084 12.2056206,6.92412178 12.2056206,7 C12.2056206,7.08009368 12.2604215,7.13911007 12.3447307,7.15175644 C13.4955504,7.31615925 13.6430913,7.55644028 13.8538642,8.66510539 C13.870726,8.74941452 13.9297424,8.8 14.0056206,8.8 Z" id="Path-Copy" fill="#BF5AF2" opacity="0.600000024"></path>
        <g id="Pencil_Base" fill="#168AFF">
            <path d="M3.07557525,3.27946831 C3.10738379,3.27258798 3.13664209,3.26682472 3.16597818,3.26160513 C3.19407786,3.25661079 3.22181021,3.25217747 3.24959807,3.24822758 C3.3431507,3.23490837 3.43787348,3.22705558 3.53270619,3.22474499 C3.54619312,3.22441336 3.56021661,3.22418981 3.57424082,3.22408741 L3.59202055,3.22402251 C3.61600759,3.22402251 3.63999463,3.22437692 3.66397314,3.22508575 C3.69176119,3.22590043 3.72012236,3.22722855 3.74845755,3.22905289 C3.77692744,3.23089046 3.80498198,3.23319023 3.83299719,3.23597733 C3.86236278,3.23889105 3.89230728,3.24242516 3.92218997,3.24651769 C3.95842477,3.25149198 3.99379267,3.25714552 4.02904516,3.2635852 C4.04457753,3.26641925 4.06056799,3.26950351 4.07653203,3.27274998 C4.1217801,3.28195855 4.16647313,3.29238022 4.21089814,3.30408537 C4.22093231,3.3067264 4.23153789,3.30959531 4.24212737,3.31253756 C4.27196202,3.32083528 4.30106886,3.32952376 4.33003598,3.33877116 C4.35855924,3.347869 4.38751122,3.35771229 4.41630528,3.3681193 C4.42116985,3.36987869 4.42551008,3.37146263 4.42984665,3.3730594 C4.4761162,3.39008583 4.52241276,3.4087674 4.56821184,3.42893807 C4.59406406,3.44033198 4.61917606,3.45191971 4.64412424,3.46396063 C4.67111495,3.47697976 4.69839649,3.4907848 4.72546291,3.50513959 C4.75890801,3.52288219 4.79178851,3.54132453 4.82431475,3.56059431 C4.8374698,3.56838641 4.85073285,3.5764165 4.86393439,3.58458539 C4.89491851,3.60376145 4.92539479,3.6235868 4.95550936,3.64416832 C4.9772823,3.65904443 4.99913454,3.67451232 5.02078256,3.69038541 C5.03998798,3.70447076 5.05881967,3.71870909 5.07748715,3.73325923 C5.10440445,3.75423289 5.13126725,3.7760983 5.15775949,3.79862613 C5.1821715,3.81939236 5.20595148,3.84042939 5.22940861,3.86201411 C5.24512436,3.87647694 5.26059993,3.89109333 5.27592752,3.90595256 C5.28442786,3.91418351 5.29385225,3.92345739 5.30321896,3.9328241 L10.2031018,8.83270693 C10.255475,8.88508012 10.3065885,8.93859789 10.3564099,8.99321224 L10.2031018,8.83270693 C10.2748395,8.90444467 10.344214,8.97832987 10.4111413,9.05423915 C10.4223877,9.06699478 10.4335715,9.07981507 10.4446856,9.092692 C10.7663645,9.46539004 11.0297601,9.88553066 11.2252237,10.3388957 L11.6780206,11.3880225 L12.548286,13.4076516 C12.7467158,13.8678966 12.5344727,14.4018581 12.0742277,14.6002879 C11.9977866,14.6332447 11.9179446,14.6552159 11.836969,14.6662015 L11.7149387,14.6744406 C11.592625,14.6744406 11.4703113,14.6497231 11.3556497,14.6002879 L11.2340206,14.5480225 L9.33602055,13.7300225 L8.28689372,13.2772256 C7.83352871,13.081762 7.41338809,12.8183665 7.04069004,12.4966876 L7.0022372,12.4631433 C6.98177889,12.4451057 6.9614676,12.4268903 6.94130575,12.4084989 L7.04069004,12.4966876 C6.95122931,12.4194733 6.86450207,12.3389008 6.78070498,12.2551038 L1.88082214,7.35522092 C0.935753358,6.41015213 0.935753358,4.87789288 1.88082214,3.9328241 L1.90902055,3.90502251 L2.01192506,3.8109306 C2.19120357,3.65606766 2.38780913,3.5318516 2.59488381,3.4382824 C2.62872186,3.42311621 2.65522016,3.41182111 2.68187195,3.40102033 C2.76025666,3.36925866 2.83986347,3.34180278 2.92043821,3.31861145 L3.07557525,3.27946831 Z M9.58610551,9.95149698 L7.89951995,11.6381324 C8.10279642,11.805046 8.32371441,11.9494547 8.55841217,12.068738 L8.76594574,12.166096 L10.2570206,12.8090225 L10.7570206,12.3090225 L10.114094,10.8179477 C9.97930356,10.5053101 9.80144069,10.2137385 9.58610551,9.95149698 Z" id="Combined-Shape" fill-rule="nonzero"></path>
            <rect id="Rectangle" opacity="0.005" x="0" y="0" width="16" height="16" rx="2"></rect>
        </g>
    </g>
</svg>
