<?xml version="1.0" encoding="UTF-8"?>
<svg width="16px" height="16px" viewBox="0 0 16 16" version="1.1" xmlns="http://www.w3.org/2000/svg" xmlns:xlink="http://www.w3.org/1999/xlink">
    <title>update_done</title>
    <g id="update_done" stroke="none" stroke-width="1" fill="none" fill-rule="evenodd">
        <path d="M7.99628087,10.2249329 C8.17873177,10.2249329 8.32269694,10.1451106 8.42817636,9.98546611 L12.4691788,3.62249085 C12.5062391,3.56262415 12.5333217,3.50774634 12.5504265,3.45785742 C12.5675312,3.4079685 12.5760836,3.35736688 12.5760836,3.30605257 C12.5760836,3.18916996 12.5404487,3.09509371 12.4691788,3.02382383 C12.3979089,2.95255394 12.3038327,2.916919 12.1869501,2.916919 C12.1014262,2.916919 12.0315817,2.93331107 11.9774166,2.96609522 C11.9232515,2.99887937 11.8705118,3.05518258 11.8191974,3.13500485 L7.97917609,9.25423709 L5.98647013,6.64575934 C5.8838415,6.50607036 5.7612573,6.43622588 5.61871753,6.43622588 C5.49898413,6.43622588 5.40063169,6.47399892 5.32366021,6.54954499 C5.24668874,6.62509107 5.208203,6.72130541 5.208203,6.83818802 C5.208203,6.88950234 5.21818078,6.94152936 5.23813635,6.99426907 C5.25809192,7.04700878 5.28945067,7.0990358 5.3322126,7.15035012 L7.55155679,9.97691372 C7.67984258,10.1422599 7.82808394,10.2249329 7.99628087,10.2249329 Z" id="Path" stroke="#424242" stroke-width="0.25" fill="#424242" fill-rule="nonzero" opacity="0.699999988"></path>
        <path d="M13.4936602,5.70444521 C14.786773,8.52985932 13.1284016,12.0970567 10.8898246,13.2095251 C8.37905526,14.4572605 6.15063902,14.0754097 4.33131593,12.6869672 C3.71348543,12.215461 3.2847851,11.7418986 3.05289763,11.4119193 C2.89412616,11.1859851 2.94857226,10.8741196 3.1745064,10.7153482 C3.40044053,10.5565767 3.71230604,10.6110228 3.87107751,10.8369569 C3.91094186,10.8936845 3.99892854,11.0051259 4.13275619,11.1529581 C4.36037555,11.4043971 4.62970062,11.656741 4.93799249,11.8920184 C6.47428479,13.0644619 8.30383754,13.3779653 10.444795,12.3140093 C12.233207,11.4252519 13.6335601,8.41305798 12.5843677,6.12060287 C12.4694489,5.86950869 12.5798409,5.57279657 12.8309351,5.45787781 C13.0820293,5.34295904 13.3787414,5.45335103 13.4936602,5.70444521 Z M10.0369418,2.40506673 C10.2930533,2.50832139 10.4169682,2.7996452 10.3137136,3.05575667 C10.2104589,3.31186815 9.91913511,3.43578307 9.66302364,3.33252841 C8.38490326,2.81723761 6.97451654,2.85632134 5.41209072,3.63277413 C4.48657401,4.09271278 3.4606248,5.42285872 3.06664151,6.83841758 L3.95429714,6.8386715 C4.09101589,6.8386715 4.19453151,6.86699181 4.26484401,6.92363244 C4.33515651,6.98027306 4.3693362,7.05449181 4.36738308,7.14628869 C4.36542995,7.23808556 4.32734401,7.3386715 4.25312526,7.4480465 L2.94062526,9.31718713 C2.84687526,9.44999963 2.73750026,9.51738244 2.61250026,9.51933556 C2.48750026,9.52128869 2.37617214,9.45390588 2.27851589,9.31718713 L0.966015888,7.45390588 C0.891797138,7.34453088 0.852734638,7.24296838 0.848828388,7.14921838 C0.844922138,7.05546838 0.878125263,6.98027306 0.948437763,6.92363244 C1.01875026,6.86699181 1.12421901,6.8386715 1.26484401,6.8386715 L2.03552,6.837971 L2.04103895,6.81332213 C2.45576008,5.03868179 3.72480604,3.35460112 4.96706109,2.73725828 C6.78913744,1.83177129 8.49752193,1.78442963 10.0369418,2.40506673 Z" id="Combined-Shape" fill="#424242" fill-rule="nonzero" opacity="0.300000012"></path>
    </g>
</svg>
