<svg xmlns="http://www.w3.org/2000/svg" viewBox="0 0 16 16">
  <style>
    .sparkle1, .sparkle2 {
      transform-box: fill-box;
      transform-origin: center;
    }

    .sparkle1 {
      animation: sparkle1Pulse 2s ease-in-out infinite;
    }

    .sparkle2 {
      animation: sparkle2Pulse 2s ease-in-out infinite;
      transform: translate(3px, 3px);
    }

    @keyframes sparkle1Pulse {
      0%, 100% {
        transform: scale(1);
        opacity: 0.5;
      }
      50% {
        transform: scale(0.6);
        opacity: 0.3;
      }
    }

    @keyframes sparkle2Pulse {
      0%, 100% {
        transform: translate(3px, 3px) scale(0.6);
        opacity: 0.3;
      }
      50% {
        transform: translate(3px, 3px) scale(1);
        opacity: 0.5;
      }
    }
  </style>
  <g fill="#000000">
    <!-- Large sparkle -->
    <path class="sparkle1" d="M10.00 6c0.127 0 0.225-0.091 0.246-0.232c0.288-1.812 0.611-2.24 2.522-2.515c0.141-0.021 0.225-0.12 0.225-0.253c0-0.127-0.084-0.225-0.225-0.246c-1.918-0.274-2.157-0.681-2.522-2.536C10.226 0.091 10.135 0 10.008 0c-0.133 0-0.232 0.091-0.253 0.225c-0.288 1.848-0.604 2.255-2.515 2.53C7.1 2.782 7.008 2.874 7.008 3c0 0.133 0.092 0.232 0.232 0.253c1.918 0.274 2.164 0.674 2.515 2.522C9.783 5.916 9.882 6 10.008 6z"/>

    <!-- Second sparkle (same size as sparkle1, positioned at original sparkle2 location) -->
    <path class="sparkle2" d="M10.00 6c0.127 0 0.225-0.091 0.246-0.232c0.288-1.812 0.611-2.24 2.522-2.515c0.141-0.021 0.225-0.12 0.225-0.253c0-0.127-0.084-0.225-0.225-0.246c-1.918-0.274-2.157-0.681-2.522-2.536C10.226 0.091 10.135 0 10.008 0c-0.133 0-0.232 0.091-0.253 0.225c-0.288 1.848-0.604 2.255-2.515 2.53C7.1 2.782 7.008 2.874 7.008 3c0 0.133 0.092 0.232 0.232 0.253c1.918 0.274 2.164 0.674 2.515 2.522C9.783 5.916 9.882 6 10.008 6z"/>

    <!-- Wand -->
    <path opacity="0.5" d="M2.92 3.319l0.156-0.04l0.132-0.025l0.183-0.022l0.237-0.008l0.205 0.012l0.244 0.037l0.165 0.04l0.131 0.04l0.126 0.047l0.145 0.064l0.22 0.12l0.124 0.083l0.17 0.132l0.145 0.134l4.9 4.9l0.106 0.109l0.136 0.151c0.321 0.372 0.585 0.793 0.78 1.247l1.323 3.069c0.199 0.46-0.013 0.994-0.474 1.192c-0.076 0.033-0.156 0.055-0.237 0.066l-0.122 0.008c-0.122 0-0.245-0.024-0.359-0.074l-3.069-1.323c-0.453-0.196-0.874-0.459-1.246-0.78c-0.09-0.078-0.176-0.158-0.26-0.242l-4.9-4.9c-0.945-0.945-0.945-2.477 0-3.422l0.131-0.122c0.18-0.155 0.376-0.279 0.583-0.373l0.087-0.037c0.078-0.032 0.158-0.06 0.239-0.083zM9.586 9.951l-1.687 1.687c0.203 0.167 0.424 0.311 0.659 0.43l0.208 0.099l1.491 0.643l0.5-0.5l-0.643-1.491c-0.101-0.235-0.226-0.457-0.374-0.664l-0.154-0.202z"/>
  </g>
</svg>
