<?xml version="1.0" encoding="UTF-8"?>
<svg width="16px" height="16px" viewBox="0 0 16 16" version="1.1" xmlns="http://www.w3.org/2000/svg" xmlns:xlink="http://www.w3.org/1999/xlink">
    <title>nextedit_unavailable_light</title>
    <g id="nextedit_unavailable_light" stroke="none" stroke-width="1" fill="none" fill-rule="evenodd" opacity="0.200000003">
        <g id="Pencil" transform="translate(1.172, 3.224)">
            <path d="M4.81096943,2.24362978 L8.60328164,6.03648403 C8.98206926,6.41527164 9.28555422,6.86248408 9.4976383,7.35439917 L10.8207006,10.4231551 L7.35439917,9.4976383 C6.86248408,9.28555422 6.41527164,8.98206926 6.03645345,8.60325107 L2.24362978,4.81096943 L4.81096943,2.24362978 Z M2.40551485,0.605057322 C2.66486762,0.603004601 2.92459099,0.65617863 3.16550077,0.764612139 L0.782130647,3.14739928 C0.671050497,2.89397491 0.616248167,2.62929203 0.618310403,2.36812709 C0.621891891,1.91456136 0.798131359,1.47507103 1.13660119,1.13660119 C1.48731739,0.785884996 1.94585368,0.608695442 2.40551485,0.605057322 Z" id="Combined-Shape" stroke="#3B3B3B" stroke-width="1.21"></path>
            <path d="M10.506,8.164 L11.3762654,10.1836291 C11.5746952,10.6438741 11.3624521,11.1778356 10.9022072,11.3762654 C10.6728839,11.4751357 10.4129523,11.4751357 10.1836291,11.3762654 L8.164,10.506 L10.506,8.164 Z M4.13119841,0.708801589 L9.03108125,5.60868442 C9.11487834,5.69248152 9.19545077,5.77920876 9.27266509,5.86866949 L5.86866949,9.27266509 C5.77920876,9.19545077 5.69248152,9.11487834 5.60868442,9.03108125 L0.708801589,4.13119841 C-0.236267196,3.18612962 -0.236267196,1.65387038 0.708801589,0.708801589 C1.65387038,-0.236267196 3.18612962,-0.236267196 4.13119841,0.708801589 Z" id="Combined-Shape" fill="#3B3B3B"></path>
        </g>
    </g>
</svg>
