<?xml version="1.0" encoding="UTF-8"?>
<svg width="16px" height="16px" viewBox="0 0 16 16" version="1.1" xmlns="http://www.w3.org/2000/svg" xmlns:xlink="http://www.w3.org/1999/xlink">
    <title>Update_dark</title>
    <g id="Update_dark" stroke="none" stroke-width="1" fill="none" fill-rule="evenodd">
        <path d="M7.96210964,13.946094 C8.77851589,13.946094 9.54707058,13.789844 10.2677737,13.477344 C10.9884768,13.164844 11.624219,12.7332034 12.1750003,12.1824221 C12.7257815,11.6316409 13.1574221,10.9958987 13.4699221,10.2751956 C13.7824221,9.55449244 13.9386721,8.78593775 13.9386721,7.9695315 C13.9386721,7.15312525 13.7824221,6.38457056 13.4699221,5.66386744 C13.1574221,4.94316431 12.7257815,4.30742213 12.1750003,3.75664088 C11.624219,3.20585963 10.9884768,2.774219 10.2677737,2.461719 C9.54707058,2.149219 8.77851589,1.992969 7.96210964,1.992969 C7.14570339,1.992969 6.3771487,2.149219 5.65644558,2.461719 C4.93574245,2.774219 4.30000026,3.20488306 3.74921901,3.75371119 C3.19843776,4.30253931 2.76679714,4.93730494 2.45429714,5.65800806 C2.14179714,6.37871119 1.98554714,7.14726588 1.98554714,7.96367213 L2.98164089,7.96367213 C2.98164089,7.27226588 3.10957058,6.6257815 3.36542995,6.024219 C3.62128933,5.4226565 3.97773464,4.89531275 4.43476589,4.44218775 C4.89179714,3.98906275 5.42109401,3.63457056 6.02265651,3.37871119 C6.62421901,3.12285181 7.27070339,2.99492213 7.96210964,2.99492213 C8.65351589,2.99492213 9.30000026,3.12285181 9.90156276,3.37871119 C10.5031253,3.63457056 11.0314456,3.99003931 11.4865237,4.44511744 C11.9416018,4.90019556 12.2980471,5.42851588 12.5558596,6.03007838 C12.8136721,6.63164088 12.9425784,7.27812525 12.9425784,7.9695315 C12.9425784,8.66093775 12.8136721,9.30839869 12.5558596,9.91191431 C12.2980471,10.5154299 11.9416018,11.0447268 11.4865237,11.4998049 C11.0314456,11.9548831 10.5031253,12.3113284 9.90156276,12.5691409 C9.30000026,12.8269534 8.65351589,12.9539065 7.96210964,12.9500003 C7.40351589,12.946094 6.87421901,12.8591799 6.37421901,12.6892581 C5.87421901,12.5193362 5.4162112,12.2800784 5.00019558,11.9714846 C4.58417995,11.6628909 4.22773464,11.3015628 3.93085964,10.8875003 C3.84101589,10.7664065 3.73261745,10.6892581 3.60566433,10.6560549 C3.4787112,10.6228518 3.35273464,10.6433596 3.22773464,10.7175784 C3.11054714,10.7917971 3.03925808,10.899219 3.01386745,11.039844 C2.98847683,11.180469 3.02656276,11.3152346 3.12812526,11.4441409 C3.49921901,11.9402346 3.93476589,12.3767581 4.43476589,12.7537112 C4.93476589,13.1306643 5.48359401,13.4236331 6.08125026,13.6326174 C6.67890651,13.8416018 7.30585964,13.946094 7.96210964,13.946094 Z M1.26484401,6.83867213 C1.12421901,6.83867213 1.01875026,6.86699244 0.948437763,6.92363306 C0.878125263,6.98027369 0.844922138,7.055469 0.848828388,7.149219 C0.852734638,7.242969 0.891797138,7.3445315 0.966015888,7.4539065 L2.27851589,9.31718775 C2.37617214,9.4539065 2.48750026,9.52128931 2.61250026,9.51933619 C2.73750026,9.51738306 2.84687526,9.45000025 2.94062526,9.31718775 L4.25312526,7.44804713 C4.32734401,7.33867213 4.36542995,7.23808619 4.36738308,7.14628931 C4.3693362,7.05449244 4.33515651,6.98027369 4.26484401,6.92363306 C4.19453151,6.86699244 4.09101589,6.83867213 3.95429714,6.83867213 L1.26484401,6.83867213 Z" id="Shape" fill="#C5C5C5" fill-rule="nonzero"></path>
    </g>
</svg>
