<svg width="13" height="13" viewBox="0 0 13 13" fill="none" xmlns="http://www.w3.org/2000/svg">
<rect x="0.5" y="0.5" width="12" height="12" rx="1.5" stroke="white" stroke-opacity="0.4"/>
<path d="M4.5957 10V9.02344H6.69043C7.15592 9.02344 7.50911 8.92904 7.75 8.74023C7.99089 8.54818 8.11133 8.27311 8.11133 7.91504V7.90527C8.11133 7.66764 8.05599 7.46745 7.94531 7.30469C7.83464 7.14193 7.66862 7.01986 7.44727 6.93848C7.22917 6.8571 6.95898 6.81641 6.63672 6.81641H4.5957V5.92285H6.44141C6.88737 5.92285 7.22591 5.83822 7.45703 5.66895C7.69141 5.49967 7.80859 5.25553 7.80859 4.93652V4.92676C7.80859 4.61426 7.7028 4.37012 7.49121 4.19434C7.27962 4.01855 6.9834 3.93066 6.60254 3.93066H4.5957V2.9541H6.90527C7.35449 2.9541 7.73861 3.02572 8.05762 3.16895C8.37663 3.30892 8.6224 3.51074 8.79492 3.77441C8.96745 4.03483 9.05371 4.3457 9.05371 4.70703V4.7168C9.05371 4.96419 8.99674 5.19531 8.88281 5.41016C8.77214 5.625 8.6224 5.80404 8.43359 5.94727C8.24805 6.09049 8.03646 6.18164 7.79883 6.2207V6.30859C8.11458 6.33789 8.39128 6.42904 8.62891 6.58203C8.86979 6.73177 9.05697 6.92871 9.19043 7.17285C9.32715 7.41699 9.39551 7.69043 9.39551 7.99316V8.00293C9.39551 8.41309 9.29785 8.7679 9.10254 9.06738C8.91048 9.36686 8.63379 9.59798 8.27246 9.76074C7.91113 9.92025 7.47982 10 6.97852 10H4.5957ZM3.96582 10V2.9541H5.22559V10H3.96582Z" fill="white" fill-opacity="0.4"/>
</svg>
