<svg width="14" height="13" viewBox="0 0 14 13" fill="none" xmlns="http://www.w3.org/2000/svg">
<rect x="0.5" y="0.5" width="13" height="12" rx="1.5" stroke="white" stroke-opacity="0.4"/>
<path d="M9.80273 10.1172H6.4873C6.29525 10.1172 6.12272 10.0977 5.96973 10.0586C5.81673 10.0228 5.6735 9.96419 5.54004 9.88281C5.40983 9.79818 5.28125 9.68587 5.1543 9.5459L3.08398 7.29004C2.92773 7.12077 2.81868 6.97428 2.75684 6.85059C2.69499 6.72363 2.66406 6.59831 2.66406 6.47461C2.66406 6.35417 2.69499 6.2321 2.75684 6.1084C2.81868 5.9847 2.92773 5.83659 3.08398 5.66406L5.14941 3.4082C5.27637 3.26823 5.40495 3.15592 5.53516 3.07129C5.66862 2.98665 5.81185 2.92806 5.96484 2.89551C6.11784 2.8597 6.29199 2.8418 6.4873 2.8418H9.80273C10.2389 2.8418 10.5693 2.9541 10.7939 3.17871C11.0218 3.40332 11.1357 3.7321 11.1357 4.16504V8.85254C11.1357 9.28548 11.0218 9.60449 10.7939 9.80957C10.5693 10.0146 10.2389 10.1172 9.80273 10.1172ZM9.72461 9.18945C9.88086 9.18945 9.99967 9.15039 10.0811 9.07227C10.1624 8.99089 10.2031 8.86719 10.2031 8.70117V4.25781C10.2031 4.09505 10.1624 3.97298 10.0811 3.8916C9.99967 3.81022 9.88086 3.76953 9.72461 3.76953H6.43359C6.31315 3.76953 6.20898 3.78581 6.12109 3.81836C6.0332 3.85091 5.94857 3.91276 5.86719 4.00391L3.81152 6.24023C3.73014 6.32812 3.68945 6.40625 3.68945 6.47461C3.68945 6.51042 3.69759 6.54785 3.71387 6.58691C3.73014 6.62272 3.7627 6.66504 3.81152 6.71387L5.86719 8.94531C5.95508 9.03971 6.04134 9.10482 6.12598 9.14062C6.21387 9.17318 6.31803 9.18945 6.43848 9.18945H9.72461ZM6.40918 8.09082C6.2985 8.09082 6.20247 8.05176 6.12109 7.97363C6.04297 7.89551 6.00391 7.79785 6.00391 7.68066C6.00391 7.57324 6.0446 7.48047 6.12598 7.40234L7.03906 6.48438L6.12598 5.57129C6.0446 5.48991 6.00391 5.39551 6.00391 5.28809C6.00391 5.17415 6.04297 5.07812 6.12109 5C6.20247 4.92188 6.2985 4.88281 6.40918 4.88281C6.52637 4.88281 6.6224 4.92188 6.69727 5L7.61523 5.91309L8.5332 5C8.61784 4.91862 8.71549 4.87793 8.82617 4.87793C8.9401 4.87793 9.03613 4.91699 9.11426 4.99512C9.19238 5.07324 9.23145 5.1709 9.23145 5.28809C9.23145 5.39225 9.19076 5.48503 9.10938 5.56641L8.19629 6.48438L9.10449 7.39746C9.18587 7.47884 9.22656 7.57324 9.22656 7.68066C9.22656 7.79785 9.1875 7.89551 9.10938 7.97363C9.03125 8.05176 8.93522 8.09082 8.82129 8.09082C8.70736 8.09082 8.60807 8.05176 8.52344 7.97363L7.61523 7.06055L6.70703 7.97363C6.62891 8.05176 6.52962 8.09082 6.40918 8.09082Z" fill="white" fill-opacity="0.4"/>
</svg>
