<svg width="14" height="13" viewBox="0 0 14 13" fill="none" xmlns="http://www.w3.org/2000/svg">
<rect x="0.5" y="0.5" width="13" height="12" rx="1.5" stroke="white" stroke-opacity="0.4"/>
<path d="M7.14648 10.1758C6.47917 10.1758 5.90299 10.026 5.41797 9.72656C4.9362 9.42708 4.56348 9.00228 4.2998 8.45215C4.03939 7.89876 3.90918 7.24284 3.90918 6.48438V6.47461C3.90918 5.71289 4.03939 5.05697 4.2998 4.50684C4.56348 3.95345 4.9362 3.52702 5.41797 3.22754C5.89974 2.92806 6.47428 2.77832 7.1416 2.77832C7.67546 2.77832 8.15723 2.88411 8.58691 3.0957C9.0166 3.30404 9.36654 3.59375 9.63672 3.96484C9.9069 4.33268 10.0697 4.75586 10.125 5.23438L10.1201 5.27344H8.88965L8.88477 5.24902C8.82617 4.97233 8.71549 4.73145 8.55273 4.52637C8.38997 4.31803 8.18815 4.1569 7.94727 4.04297C7.70638 3.92578 7.43783 3.86719 7.1416 3.86719C6.74447 3.86719 6.39941 3.97298 6.10645 4.18457C5.81348 4.39616 5.58724 4.69727 5.42773 5.08789C5.27148 5.47526 5.19336 5.93587 5.19336 6.46973V6.47949C5.19336 7.01335 5.27148 7.47559 5.42773 7.86621C5.58724 8.25684 5.81348 8.55794 6.10645 8.76953C6.39941 8.98112 6.74609 9.08691 7.14648 9.08691C7.44596 9.08691 7.71452 9.03483 7.95215 8.93066C8.19303 8.8265 8.39323 8.68001 8.55273 8.49121C8.71549 8.29915 8.82617 8.07454 8.88477 7.81738L8.89453 7.78809H10.125V7.82715C10.0632 8.2959 9.89876 8.70605 9.63184 9.05762C9.36491 9.40918 9.01986 9.68424 8.59668 9.88281C8.1735 10.0781 7.6901 10.1758 7.14648 10.1758Z" fill="white" fill-opacity="0.4"/>
</svg>
