<svg width="14" height="13" viewBox="0 0 14 13" fill="none" xmlns="http://www.w3.org/2000/svg">
<rect x="0.5" y="0.5" width="13" height="12" rx="1.5" stroke="white" stroke-opacity="0.4"/>
<path d="M5.44238 5.7666L4.80762 5.76172C4.53418 5.76172 4.28516 5.69661 4.06055 5.56641C3.83594 5.4362 3.6569 5.26042 3.52344 5.03906C3.38997 4.81445 3.32324 4.56543 3.32324 4.29199C3.32324 4.01855 3.38997 3.76953 3.52344 3.54492C3.6569 3.32031 3.83594 3.14128 4.06055 3.00781C4.28516 2.87435 4.53418 2.80762 4.80762 2.80762C5.08105 2.80762 5.32845 2.87435 5.5498 3.00781C5.77441 3.14128 5.95345 3.32194 6.08691 3.5498C6.22038 3.77441 6.28711 4.02181 6.28711 4.29199V4.91699H7.70801V4.29199C7.70801 4.02181 7.77474 3.77441 7.9082 3.5498C8.04492 3.32194 8.22396 3.14128 8.44531 3.00781C8.66992 2.87435 8.91732 2.80762 9.1875 2.80762C9.46419 2.80762 9.71484 2.87435 9.93945 3.00781C10.1641 3.14128 10.3415 3.32031 10.4717 3.54492C10.6051 3.76953 10.6719 4.01855 10.6719 4.29199C10.6719 4.56543 10.6051 4.81445 10.4717 5.03906C10.3415 5.26042 10.1641 5.4362 9.93945 5.56641C9.71484 5.69661 9.46582 5.76172 9.19238 5.76172L8.55762 5.7666V7.19238L9.19238 7.19727C9.46582 7.19727 9.71484 7.26237 9.93945 7.39258C10.1641 7.52279 10.3415 7.69857 10.4717 7.91992C10.6051 8.14128 10.6719 8.3903 10.6719 8.66699C10.6719 8.93717 10.6051 9.1862 10.4717 9.41406C10.3415 9.63867 10.1641 9.81771 9.93945 9.95117C9.71484 10.0846 9.46419 10.1514 9.1875 10.1514C8.91732 10.1514 8.66992 10.0846 8.44531 9.95117C8.22396 9.81445 8.04492 9.63379 7.9082 9.40918C7.77474 9.18457 7.70801 8.93717 7.70801 8.66699V8.04199H6.28711V8.66699C6.28711 8.93717 6.22038 9.18457 6.08691 9.40918C5.95345 9.63379 5.77441 9.81445 5.5498 9.95117C5.32845 10.0846 5.08105 10.1514 4.80762 10.1514C4.53418 10.1514 4.28516 10.0846 4.06055 9.95117C3.83594 9.81771 3.6569 9.63867 3.52344 9.41406C3.38997 9.1862 3.32324 8.93717 3.32324 8.66699C3.32324 8.3903 3.38997 8.14128 3.52344 7.91992C3.6569 7.69857 3.83594 7.52279 4.06055 7.39258C4.28516 7.26237 4.53418 7.19727 4.80762 7.19727L5.44238 7.19238V5.7666ZM4.82715 4.92676H5.4375V4.31152C5.4375 4.13249 5.37402 3.98112 5.24707 3.85742C5.12337 3.73047 4.97689 3.66699 4.80762 3.66699C4.63509 3.66699 4.48698 3.72884 4.36328 3.85254C4.23958 3.97298 4.17773 4.11947 4.17773 4.29199C4.17773 4.46777 4.24121 4.61751 4.36816 4.74121C4.49512 4.86491 4.64811 4.92676 4.82715 4.92676ZM9.17285 4.92676C9.35189 4.92676 9.50326 4.86491 9.62695 4.74121C9.75391 4.61751 9.81738 4.46777 9.81738 4.29199C9.81738 4.11947 9.75553 3.97298 9.63184 3.85254C9.50814 3.72884 9.36003 3.66699 9.1875 3.66699C9.01823 3.66699 8.87174 3.73047 8.74805 3.85742C8.62435 3.98112 8.5625 4.13249 8.5625 4.31152V4.92676H9.17285ZM6.28711 7.19238H7.70801V5.7666H6.28711V7.19238ZM4.82715 8.02734C4.64811 8.02734 4.49512 8.08919 4.36816 8.21289C4.24121 8.33659 4.17773 8.48633 4.17773 8.66211C4.17773 8.83464 4.23958 8.98275 4.36328 9.10645C4.48698 9.23014 4.63509 9.29199 4.80762 9.29199C4.97689 9.29199 5.12337 9.22852 5.24707 9.10156C5.37402 8.97461 5.4375 8.82324 5.4375 8.64746V8.02734H4.82715ZM9.17285 8.02734H8.5625V8.64746C8.5625 8.82324 8.62435 8.97461 8.74805 9.10156C8.87174 9.22852 9.01823 9.29199 9.1875 9.29199C9.36003 9.29199 9.50814 9.23014 9.63184 9.10645C9.75553 8.98275 9.81738 8.83464 9.81738 8.66211C9.81738 8.48633 9.75391 8.33659 9.62695 8.21289C9.50326 8.08919 9.35189 8.02734 9.17285 8.02734Z" fill="white" fill-opacity="0.4"/>
</svg>
