<svg width="14" height="13" viewBox="0 0 14 13" fill="none" xmlns="http://www.w3.org/2000/svg">
<rect x="0.5" y="0.5" width="13" height="12" rx="1.5" stroke="white" stroke-opacity="0.4"/>
<path d="M3.66016 5.96191L6.55566 3.03223C6.68913 2.90202 6.83887 2.83691 7.00488 2.83691C7.17415 2.83691 7.32227 2.90202 7.44922 3.03223L10.3398 5.96191C10.4473 6.06934 10.501 6.20117 10.501 6.35742C10.501 6.51367 10.4456 6.64714 10.335 6.75781C10.2275 6.86523 10.0957 6.91895 9.93945 6.91895C9.78646 6.91895 9.64974 6.86035 9.5293 6.74316L6.81934 3.98926H7.19043L4.47559 6.74316C4.35514 6.86035 4.21842 6.91895 4.06543 6.91895C3.90592 6.91895 3.77083 6.86523 3.66016 6.75781C3.55273 6.64714 3.49902 6.51367 3.49902 6.35742C3.49902 6.20443 3.55273 6.07259 3.66016 5.96191Z" fill="white" fill-opacity="0.4"/>
</svg>
