<svg width="37" height="13" viewBox="0 0 37 13" fill="none" xmlns="http://www.w3.org/2000/svg">
<rect x="0.5" y="0.5" width="36" height="12" rx="1.5" stroke="white" stroke-opacity="0.4"/>
<path d="M5.78516 10.0879C5.34245 10.0879 4.95671 9.97721 4.62793 9.75586C4.29915 9.53125 4.04525 9.21224 3.86621 8.79883C3.68717 8.38542 3.59766 7.89876 3.59766 7.33887V7.3291C3.59766 6.7627 3.68555 6.27441 3.86133 5.86426C4.04036 5.45085 4.29264 5.13346 4.61816 4.91211C4.94694 4.6875 5.33594 4.5752 5.78516 4.5752C6.0293 4.5752 6.25716 4.61426 6.46875 4.69238C6.68034 4.76725 6.86589 4.87467 7.02539 5.01465C7.18815 5.15462 7.3151 5.32064 7.40625 5.5127H7.49414V2.59766H8.70508V10H7.49414V9.16504H7.40625C7.30859 9.3571 7.18001 9.52311 7.02051 9.66309C6.86426 9.7998 6.68197 9.9056 6.47363 9.98047C6.2653 10.0521 6.03581 10.0879 5.78516 10.0879ZM6.16602 9.0625C6.44271 9.0625 6.68034 8.99414 6.87891 8.85742C7.08073 8.71745 7.23535 8.51888 7.34277 8.26172C7.45345 8.0013 7.50879 7.69368 7.50879 7.33887V7.3291C7.50879 6.97103 7.45345 6.66341 7.34277 6.40625C7.23535 6.14909 7.08073 5.95052 6.87891 5.81055C6.68034 5.67057 6.44271 5.60059 6.16602 5.60059C5.89258 5.60059 5.65495 5.67057 5.45312 5.81055C5.25456 5.94727 5.10156 6.14583 4.99414 6.40625C4.88672 6.66341 4.83301 6.97103 4.83301 7.3291V7.33887C4.83301 7.69694 4.88672 8.00456 4.99414 8.26172C5.10156 8.51888 5.25456 8.71745 5.45312 8.85742C5.65169 8.99414 5.88932 9.0625 6.16602 9.0625ZM12.5234 10.1074C11.9928 10.1074 11.5371 9.99512 11.1562 9.77051C10.7786 9.5459 10.4873 9.22689 10.2822 8.81348C10.0771 8.40007 9.97461 7.91016 9.97461 7.34375V7.33887C9.97461 6.77897 10.0755 6.29069 10.2773 5.87402C10.4824 5.45736 10.7721 5.13509 11.1465 4.90723C11.5208 4.67611 11.9603 4.56055 12.4648 4.56055C12.9727 4.56055 13.4089 4.67285 13.7734 4.89746C14.1413 5.11882 14.4245 5.42969 14.623 5.83008C14.8216 6.23047 14.9209 6.69922 14.9209 7.23633V7.63672H10.585V6.82129H14.3252L13.749 7.58301V7.09961C13.749 6.74479 13.6953 6.4502 13.5879 6.21582C13.4805 5.98145 13.3307 5.80566 13.1387 5.68848C12.9499 5.57129 12.7301 5.5127 12.4795 5.5127C12.2288 5.5127 12.0059 5.57454 11.8105 5.69824C11.6185 5.81868 11.4655 5.99772 11.3516 6.23535C11.2409 6.46973 11.1855 6.75781 11.1855 7.09961V7.58789C11.1855 7.91667 11.2409 8.19824 11.3516 8.43262C11.4622 8.66374 11.6185 8.84277 11.8203 8.96973C12.0254 9.09342 12.2679 9.15527 12.5479 9.15527C12.766 9.15527 12.9531 9.12435 13.1094 9.0625C13.2689 8.9974 13.3975 8.9209 13.4951 8.83301C13.5928 8.74186 13.6611 8.6556 13.7002 8.57422L13.7148 8.54004H14.8672L14.8574 8.58398C14.8151 8.75651 14.737 8.93229 14.623 9.11133C14.5124 9.28711 14.361 9.4515 14.1689 9.60449C13.9801 9.75423 13.749 9.8763 13.4756 9.9707C13.2021 10.0618 12.8848 10.1074 12.5234 10.1074ZM16.1855 10V2.59766H17.4014V10H16.1855ZM21.2148 10.1074C20.6842 10.1074 20.2285 9.99512 19.8477 9.77051C19.4701 9.5459 19.1787 9.22689 18.9736 8.81348C18.7686 8.40007 18.666 7.91016 18.666 7.34375V7.33887C18.666 6.77897 18.7669 6.29069 18.9688 5.87402C19.1738 5.45736 19.4635 5.13509 19.8379 4.90723C20.2122 4.67611 20.6517 4.56055 21.1562 4.56055C21.6641 4.56055 22.1003 4.67285 22.4648 4.89746C22.8327 5.11882 23.1159 5.42969 23.3145 5.83008C23.513 6.23047 23.6123 6.69922 23.6123 7.23633V7.63672H19.2764V6.82129H23.0166L22.4404 7.58301V7.09961C22.4404 6.74479 22.3867 6.4502 22.2793 6.21582C22.1719 5.98145 22.0221 5.80566 21.8301 5.68848C21.6413 5.57129 21.4215 5.5127 21.1709 5.5127C20.9202 5.5127 20.6973 5.57454 20.502 5.69824C20.3099 5.81868 20.1569 5.99772 20.043 6.23535C19.9323 6.46973 19.877 6.75781 19.877 7.09961V7.58789C19.877 7.91667 19.9323 8.19824 20.043 8.43262C20.1536 8.66374 20.3099 8.84277 20.5117 8.96973C20.7168 9.09342 20.9593 9.15527 21.2393 9.15527C21.4574 9.15527 21.6445 9.12435 21.8008 9.0625C21.9603 8.9974 22.0889 8.9209 22.1865 8.83301C22.2842 8.74186 22.3525 8.6556 22.3916 8.57422L22.4062 8.54004H23.5586L23.5488 8.58398C23.5065 8.75651 23.4284 8.93229 23.3145 9.11133C23.2038 9.28711 23.0524 9.4515 22.8604 9.60449C22.6715 9.75423 22.4404 9.8763 22.167 9.9707C21.8936 10.0618 21.5762 10.1074 21.2148 10.1074ZM26.9277 10.0244C26.3158 10.0244 25.8747 9.91211 25.6045 9.6875C25.3343 9.46289 25.1992 9.09505 25.1992 8.58398V5.60547H24.3691V4.66309H25.1992V3.35449H26.4346V4.66309H27.5576V5.60547H26.4346V8.2959C26.4346 8.55957 26.4899 8.75326 26.6006 8.87695C26.7145 8.9974 26.8968 9.05762 27.1475 9.05762C27.2354 9.05762 27.307 9.05599 27.3623 9.05273C27.4209 9.04622 27.486 9.03971 27.5576 9.0332V9.9707C27.473 9.98698 27.3753 10 27.2646 10.0098C27.1572 10.0195 27.0449 10.0244 26.9277 10.0244ZM31.0098 10.1074C30.4792 10.1074 30.0234 9.99512 29.6426 9.77051C29.265 9.5459 28.9736 9.22689 28.7686 8.81348C28.5635 8.40007 28.4609 7.91016 28.4609 7.34375V7.33887C28.4609 6.77897 28.5618 6.29069 28.7637 5.87402C28.9688 5.45736 29.2585 5.13509 29.6328 4.90723C30.0072 4.67611 30.4466 4.56055 30.9512 4.56055C31.459 4.56055 31.8952 4.67285 32.2598 4.89746C32.6276 5.11882 32.9108 5.42969 33.1094 5.83008C33.3079 6.23047 33.4072 6.69922 33.4072 7.23633V7.63672H29.0713V6.82129H32.8115L32.2354 7.58301V7.09961C32.2354 6.74479 32.1816 6.4502 32.0742 6.21582C31.9668 5.98145 31.8171 5.80566 31.625 5.68848C31.4362 5.57129 31.2165 5.5127 30.9658 5.5127C30.7152 5.5127 30.4922 5.57454 30.2969 5.69824C30.1048 5.81868 29.9518 5.99772 29.8379 6.23535C29.7272 6.46973 29.6719 6.75781 29.6719 7.09961V7.58789C29.6719 7.91667 29.7272 8.19824 29.8379 8.43262C29.9486 8.66374 30.1048 8.84277 30.3066 8.96973C30.5117 9.09342 30.7542 9.15527 31.0342 9.15527C31.2523 9.15527 31.4395 9.12435 31.5957 9.0625C31.7552 8.9974 31.8838 8.9209 31.9814 8.83301C32.0791 8.74186 32.1475 8.6556 32.1865 8.57422L32.2012 8.54004H33.3535L33.3438 8.58398C33.3014 8.75651 33.2233 8.93229 33.1094 9.11133C32.9987 9.28711 32.8473 9.4515 32.6553 9.60449C32.4665 9.75423 32.2354 9.8763 31.9619 9.9707C31.6885 10.0618 31.3711 10.1074 31.0098 10.1074Z" fill="white" fill-opacity="0.4"/>
</svg>
