<svg width="24" height="13" viewBox="0 0 24 13" fill="none" xmlns="http://www.w3.org/2000/svg">
<rect x="0.5" y="0.5" width="23" height="12" rx="1.5" stroke="white" stroke-opacity="0.4"/>
<path d="M6.43848 10.1074C5.90788 10.1074 5.45215 9.99512 5.07129 9.77051C4.69368 9.5459 4.40234 9.22689 4.19727 8.81348C3.99219 8.40007 3.88965 7.91016 3.88965 7.34375V7.33887C3.88965 6.77897 3.99056 6.29069 4.19238 5.87402C4.39746 5.45736 4.68717 5.13509 5.06152 4.90723C5.43587 4.67611 5.87533 4.56055 6.37988 4.56055C6.8877 4.56055 7.32389 4.67285 7.68848 4.89746C8.05632 5.11882 8.33952 5.42969 8.53809 5.83008C8.73665 6.23047 8.83594 6.69922 8.83594 7.23633V7.63672H4.5V6.82129H8.24023L7.66406 7.58301V7.09961C7.66406 6.74479 7.61035 6.4502 7.50293 6.21582C7.39551 5.98145 7.24577 5.80566 7.05371 5.68848C6.86491 5.57129 6.64518 5.5127 6.39453 5.5127C6.14388 5.5127 5.9209 5.57454 5.72559 5.69824C5.53353 5.81868 5.38053 5.99772 5.2666 6.23535C5.15592 6.46973 5.10059 6.75781 5.10059 7.09961V7.58789C5.10059 7.91667 5.15592 8.19824 5.2666 8.43262C5.37728 8.66374 5.53353 8.84277 5.73535 8.96973C5.94043 9.09342 6.18294 9.15527 6.46289 9.15527C6.68099 9.15527 6.86816 9.12435 7.02441 9.0625C7.18392 8.9974 7.3125 8.9209 7.41016 8.83301C7.50781 8.74186 7.57617 8.6556 7.61523 8.57422L7.62988 8.54004H8.78223L8.77246 8.58398C8.73014 8.75651 8.65202 8.93229 8.53809 9.11133C8.42741 9.28711 8.27604 9.4515 8.08398 9.60449C7.89518 9.75423 7.66406 9.8763 7.39062 9.9707C7.11719 10.0618 6.7998 10.1074 6.43848 10.1074ZM12.0684 10.1074C11.6159 10.1074 11.2253 10.0439 10.8965 9.91699C10.571 9.78678 10.3138 9.60775 10.125 9.37988C9.9362 9.14876 9.82389 8.88184 9.78809 8.5791V8.56934H10.9941L10.999 8.5791C11.0641 8.76465 11.1862 8.91602 11.3652 9.0332C11.5443 9.15039 11.7852 9.20898 12.0879 9.20898C12.2897 9.20898 12.4671 9.18132 12.6201 9.12598C12.7731 9.06738 12.8936 8.98763 12.9814 8.88672C13.0693 8.78581 13.1133 8.66862 13.1133 8.53516V8.52539C13.1133 8.36914 13.0498 8.23893 12.9229 8.13477C12.7959 8.02734 12.5859 7.94108 12.293 7.87598L11.4287 7.68066C11.0902 7.60579 10.8102 7.50163 10.5889 7.36816C10.3675 7.2347 10.2015 7.07031 10.0908 6.875C9.9834 6.67969 9.92969 6.45182 9.92969 6.19141V6.18652C9.92969 5.86426 10.0192 5.58105 10.1982 5.33691C10.3805 5.09277 10.6328 4.90234 10.9551 4.76562C11.2773 4.62891 11.6484 4.56055 12.0684 4.56055C12.5013 4.56055 12.874 4.62565 13.1865 4.75586C13.499 4.88607 13.7432 5.0651 13.9189 5.29297C14.0947 5.52083 14.1956 5.77962 14.2217 6.06934V6.0791H13.0791L13.0742 6.06445C13.0286 5.89518 12.9196 5.75195 12.7471 5.63477C12.5778 5.51432 12.3499 5.4541 12.0635 5.4541C11.8844 5.4541 11.7233 5.48177 11.5801 5.53711C11.4401 5.59245 11.3294 5.67057 11.248 5.77148C11.1699 5.86914 11.1309 5.9847 11.1309 6.11816V6.12305C11.1309 6.22721 11.1569 6.31836 11.209 6.39648C11.2643 6.47461 11.3506 6.54297 11.4678 6.60156C11.585 6.66016 11.7396 6.71224 11.9316 6.75781L12.7959 6.94824C13.32 7.06543 13.7074 7.23958 13.958 7.4707C14.2087 7.70182 14.334 8.0127 14.334 8.40332V8.41309C14.334 8.75163 14.2363 9.04785 14.041 9.30176C13.8457 9.55566 13.5771 9.75423 13.2354 9.89746C12.8936 10.0374 12.5046 10.1074 12.0684 10.1074ZM17.8496 10.1074C17.3125 10.1074 16.8535 9.99674 16.4727 9.77539C16.0918 9.55404 15.8005 9.23503 15.5986 8.81836C15.3968 8.40169 15.2959 7.90365 15.2959 7.32422V7.31445C15.2959 6.73828 15.3968 6.24512 15.5986 5.83496C15.8005 5.4248 16.0918 5.11068 16.4727 4.89258C16.8535 4.67122 17.3109 4.56055 17.8447 4.56055C18.3037 4.56055 18.6976 4.6403 19.0264 4.7998C19.3584 4.95605 19.6204 5.17415 19.8125 5.4541C20.0078 5.73079 20.1283 6.05469 20.1738 6.42578V6.44531H19.0264L19.0215 6.43066C18.9661 6.17025 18.8392 5.95703 18.6406 5.79102C18.4453 5.625 18.1816 5.54199 17.8496 5.54199C17.5729 5.54199 17.3353 5.61198 17.1367 5.75195C16.9414 5.89193 16.7917 6.09375 16.6875 6.35742C16.5833 6.62109 16.5312 6.9401 16.5312 7.31445V7.32422C16.5312 7.70182 16.5833 8.02572 16.6875 8.2959C16.7949 8.56283 16.9463 8.7679 17.1416 8.91113C17.3369 9.05111 17.5729 9.12109 17.8496 9.12109C18.1654 9.12109 18.4193 9.04948 18.6113 8.90625C18.8066 8.76302 18.9417 8.55143 19.0166 8.27148L19.0264 8.25195L20.1689 8.24707L20.1641 8.29102C20.1055 8.65234 19.9785 8.96973 19.7832 9.24316C19.5911 9.5166 19.334 9.72982 19.0117 9.88281C18.6895 10.0326 18.3021 10.1074 17.8496 10.1074Z" fill="white" fill-opacity="0.4"/>
</svg>
