<svg width="14" height="13" viewBox="0 0 14 13" fill="none" xmlns="http://www.w3.org/2000/svg">
<rect x="0.5" y="0.5" width="13" height="12" rx="1.5" stroke="white" stroke-opacity="0.4"/>
<path d="M7.10254 10.1758C6.59147 10.1758 6.13249 10.0911 5.72559 9.92188C5.31868 9.74935 4.97038 9.50195 4.68066 9.17969C4.39421 8.85742 4.17448 8.47005 4.02148 8.01758C3.86849 7.56185 3.79199 7.04915 3.79199 6.47949V6.46973C3.79199 5.71777 3.92708 5.06673 4.19727 4.5166C4.46745 3.96322 4.84831 3.53516 5.33984 3.23242C5.83464 2.92969 6.41569 2.77832 7.08301 2.77832C7.62663 2.77832 8.11165 2.87598 8.53809 3.07129C8.96777 3.26335 9.31934 3.53353 9.59277 3.88184C9.86621 4.22689 10.0404 4.62891 10.1152 5.08789L10.125 5.13672H8.875L8.86035 5.08789C8.74642 4.70052 8.53483 4.40104 8.22559 4.18945C7.91634 3.97461 7.53548 3.86719 7.08301 3.86719C6.67285 3.86719 6.31641 3.97298 6.01367 4.18457C5.71419 4.39616 5.48307 4.69564 5.32031 5.08301C5.15755 5.47038 5.07617 5.92936 5.07617 6.45996V6.46973C5.07617 6.87337 5.12337 7.23633 5.21777 7.55859C5.31217 7.88086 5.44727 8.15592 5.62305 8.38379C5.80208 8.61165 6.01693 8.78581 6.26758 8.90625C6.52148 9.02669 6.80632 9.08691 7.12207 9.08691C7.48014 9.08691 7.79427 9.01693 8.06445 8.87695C8.33789 8.73698 8.55111 8.54167 8.7041 8.29102C8.86035 8.04036 8.94173 7.74902 8.94824 7.41699V7.27051H7.25879V6.30859H10.1787V7.1875C10.1787 7.64323 10.1071 8.05501 9.96387 8.42285C9.82064 8.79069 9.61393 9.10482 9.34375 9.36523C9.07682 9.62565 8.75293 9.82585 8.37207 9.96582C7.99447 10.1058 7.57129 10.1758 7.10254 10.1758Z" fill="white" fill-opacity="0.4"/>
</svg>
