<svg width="13" height="13" viewBox="0 0 13 13" fill="none" xmlns="http://www.w3.org/2000/svg">
<rect x="0.5" y="0.5" width="12" height="12" rx="1.5" stroke="white" stroke-opacity="0.4"/>
<path d="M6.23145 10.1758C5.88965 10.1758 5.58366 10.127 5.31348 10.0293C5.04329 9.93164 4.81217 9.79329 4.62012 9.61426C4.43132 9.43522 4.2832 9.22201 4.17578 8.97461C4.07161 8.72396 4.01302 8.44727 4 8.14453L3.99512 8.09082H5.22559L5.23047 8.12988C5.24349 8.30892 5.28743 8.47005 5.3623 8.61328C5.44043 8.75326 5.55111 8.86556 5.69434 8.9502C5.83757 9.03158 6.01172 9.07227 6.2168 9.07227C6.55859 9.07227 6.81738 8.97298 6.99316 8.77441C7.1722 8.57259 7.26172 8.28125 7.26172 7.90039V2.9541H8.5166V7.91016C8.5166 8.38542 8.42708 8.79232 8.24805 9.13086C8.06901 9.4694 7.80859 9.72819 7.4668 9.90723C7.125 10.0863 6.71322 10.1758 6.23145 10.1758Z" fill="white" fill-opacity="0.4"/>
</svg>
