<svg width="14" height="13" viewBox="0 0 14 13" fill="none" xmlns="http://www.w3.org/2000/svg">
<rect x="0.5" y="0.5" width="13" height="12" rx="1.5" stroke="white" stroke-opacity="0.4"/>
<path d="M7 10.1758C6.3099 10.1758 5.71582 10.026 5.21777 9.72656C4.72298 9.42383 4.34049 8.99577 4.07031 8.44238C3.80013 7.889 3.66504 7.2347 3.66504 6.47949V6.46973C3.66504 5.71126 3.80013 5.05697 4.07031 4.50684C4.34375 3.95345 4.72949 3.52702 5.22754 3.22754C5.72884 2.92806 6.31966 2.77832 7 2.77832C7.68359 2.77832 8.27441 2.92806 8.77246 3.22754C9.27051 3.52702 9.65462 3.95345 9.9248 4.50684C10.195 5.06022 10.3301 5.71452 10.3301 6.46973V6.47949C10.3301 7.2347 10.195 7.889 9.9248 8.44238C9.65788 8.99577 9.27539 9.42383 8.77734 9.72656C8.2793 10.026 7.68685 10.1758 7 10.1758ZM7 9.08691C7.41992 9.08691 7.78288 8.97949 8.08887 8.76465C8.39486 8.5498 8.63086 8.24707 8.79688 7.85645C8.96615 7.46582 9.05078 7.00684 9.05078 6.47949V6.46973C9.05078 5.93913 8.96615 5.48014 8.79688 5.09277C8.63086 4.70215 8.39486 4.40104 8.08887 4.18945C7.78288 3.97461 7.41992 3.86719 7 3.86719C6.58333 3.86719 6.22038 3.97461 5.91113 4.18945C5.60514 4.40104 5.36751 4.70215 5.19824 5.09277C5.03223 5.48014 4.94922 5.93913 4.94922 6.46973V6.47949C4.94922 7.00684 5.0306 7.46582 5.19336 7.85645C5.35938 8.24707 5.59538 8.5498 5.90137 8.76465C6.21061 8.97949 6.57682 9.08691 7 9.08691Z" fill="white" fill-opacity="0.4"/>
</svg>
