<svg width="13" height="13" viewBox="0 0 13 13" fill="none" xmlns="http://www.w3.org/2000/svg">
<rect x="0.5" y="0.5" width="12" height="12" rx="1.5" stroke="white" stroke-opacity="0.4"/>
<path d="M3.9707 10V2.9541H6.81738C7.32194 2.9541 7.75488 3.04362 8.11621 3.22266C8.47754 3.40169 8.75423 3.65397 8.94629 3.97949C9.13835 4.30501 9.23438 4.69238 9.23438 5.1416V5.15137C9.23438 5.61686 9.11719 6.03027 8.88281 6.3916C8.65169 6.74967 8.3278 7.00358 7.91113 7.15332L9.44922 10H8.01367L6.62695 7.34863C6.62044 7.34863 6.61068 7.34863 6.59766 7.34863C6.58464 7.34863 6.57324 7.34863 6.56348 7.34863H5.23047V10H3.9707ZM5.23047 6.38184H6.68555C7.08594 6.38184 7.39681 6.27604 7.61816 6.06445C7.83952 5.85286 7.9502 5.55827 7.9502 5.18066V5.1709C7.9502 4.80306 7.83464 4.51172 7.60352 4.29688C7.37565 4.07878 7.06152 3.96973 6.66113 3.96973H5.23047V6.38184Z" fill="white" fill-opacity="0.4"/>
</svg>
