<svg width="15" height="13" viewBox="0 0 15 13" fill="none" xmlns="http://www.w3.org/2000/svg">
<rect x="0.5" y="0.5" width="14" height="12" rx="1.5" stroke="white" stroke-opacity="0.4"/>
<path d="M5.90332 10.0488C5.76009 10.0488 5.63477 9.99512 5.52734 9.8877L3.38867 7.78809C3.28125 7.68066 3.22754 7.55046 3.22754 7.39746C3.22754 7.24447 3.28125 7.11589 3.38867 7.01172L5.52734 4.91211C5.63477 4.80469 5.76009 4.75098 5.90332 4.75098C6.05632 4.75098 6.17839 4.79818 6.26953 4.89258C6.36393 4.98698 6.41113 5.10579 6.41113 5.24902C6.41113 5.3304 6.39648 5.40039 6.36719 5.45898C6.33789 5.51432 6.30046 5.56641 6.25488 5.61523L5.41992 6.4209L4.44336 7.22168L4.26758 6.94336L5.69336 6.875H10.2393C10.4215 6.875 10.5501 6.83594 10.625 6.75781C10.7031 6.67969 10.7422 6.54948 10.7422 6.36719V4.20898C10.7422 4.02995 10.7031 3.90137 10.625 3.82324C10.5501 3.74512 10.4215 3.70605 10.2393 3.70605H8.24707C8.09408 3.70605 7.96712 3.6556 7.86621 3.55469C7.7653 3.45378 7.71484 3.33171 7.71484 3.18848C7.71484 3.04199 7.7653 2.91829 7.86621 2.81738C7.96712 2.71322 8.09408 2.66113 8.24707 2.66113H10.2734C10.8008 2.66113 11.1816 2.77995 11.416 3.01758C11.6536 3.25195 11.7725 3.63281 11.7725 4.16016V6.4209C11.7725 6.93848 11.6536 7.31771 11.416 7.55859C11.1816 7.79948 10.8008 7.91992 10.2734 7.91992H5.69336L4.26758 7.85156L4.44336 7.57324L5.41992 8.37402L6.25488 9.17969C6.30046 9.22526 6.33789 9.27897 6.36719 9.34082C6.39648 9.39941 6.41113 9.46777 6.41113 9.5459C6.41113 9.68913 6.36393 9.80957 6.26953 9.90723C6.17839 10.0016 6.05632 10.0488 5.90332 10.0488Z" fill="white" fill-opacity="0.4"/>
</svg>
