<svg width="13" height="13" viewBox="0 0 13 13" fill="none" xmlns="http://www.w3.org/2000/svg">
<rect x="0.5" y="0.5" width="12" height="12" rx="1.5" stroke="white" stroke-opacity="0.4"/>
<path d="M6.50977 10.1758C5.96289 10.1758 5.48763 10.0911 5.08398 9.92188C4.68359 9.7526 4.36784 9.5166 4.13672 9.21387C3.9056 8.91113 3.77539 8.55794 3.74609 8.1543L3.74121 8.08594H4.96191L4.9668 8.13477C4.98633 8.33333 5.06445 8.50586 5.20117 8.65234C5.34115 8.79883 5.52669 8.91439 5.75781 8.99902C5.98893 9.0804 6.2526 9.12109 6.54883 9.12109C6.83203 9.12109 7.08268 9.07715 7.30078 8.98926C7.51888 8.90137 7.68978 8.78092 7.81348 8.62793C7.93717 8.47168 7.99902 8.29264 7.99902 8.09082V8.08594C7.99902 7.83203 7.89974 7.62533 7.70117 7.46582C7.5026 7.30306 7.17546 7.17285 6.71973 7.0752L5.96289 6.91895C5.24023 6.76595 4.71452 6.52181 4.38574 6.18652C4.06022 5.84798 3.89746 5.41667 3.89746 4.89258V4.8877C3.89746 4.46777 4.00814 4.09993 4.22949 3.78418C4.4541 3.46842 4.76172 3.22266 5.15234 3.04688C5.54622 2.86784 5.99707 2.77832 6.50488 2.77832C7.02572 2.77832 7.47656 2.86621 7.85742 3.04199C8.23828 3.21452 8.53776 3.45052 8.75586 3.75C8.97396 4.04948 9.09603 4.38802 9.12207 4.76562L9.12695 4.8291H7.92578L7.91602 4.77051C7.88672 4.58496 7.81022 4.42383 7.68652 4.28711C7.56608 4.14714 7.40495 4.03646 7.20312 3.95508C7.0013 3.8737 6.7653 3.83301 6.49512 3.83301C6.23796 3.83301 6.00846 3.8737 5.80664 3.95508C5.60482 4.0332 5.44531 4.14388 5.32812 4.28711C5.21419 4.43034 5.15723 4.60286 5.15723 4.80469V4.80957C5.15723 5.05697 5.25326 5.26204 5.44531 5.4248C5.64062 5.58757 5.95801 5.71452 6.39746 5.80566L7.1543 5.9668C7.64909 6.07096 8.05111 6.20931 8.36035 6.38184C8.6696 6.55436 8.89583 6.76921 9.03906 7.02637C9.18555 7.28027 9.25879 7.58626 9.25879 7.94434V7.94922C9.25879 8.40495 9.14648 8.79883 8.92188 9.13086C8.70052 9.46289 8.38314 9.72005 7.96973 9.90234C7.55957 10.0846 7.07292 10.1758 6.50977 10.1758Z" fill="white" fill-opacity="0.4"/>
</svg>
