<svg width="14" height="13" viewBox="0 0 14 13" fill="none" xmlns="http://www.w3.org/2000/svg">
<rect x="0.5" y="0.5" width="13" height="12" rx="1.5" stroke="white" stroke-opacity="0.4"/>
<path d="M5.93555 10.1104L6.36035 7.17578H7.61035L6.76562 10.1104H5.93555ZM7 4.71973C6.77865 4.71973 6.5931 4.64648 6.44336 4.5C6.29688 4.35026 6.22363 4.16797 6.22363 3.95312C6.22363 3.73503 6.29688 3.55273 6.44336 3.40625C6.5931 3.25651 6.77865 3.18164 7 3.18164C7.22461 3.18164 7.41016 3.25651 7.55664 3.40625C7.70312 3.55273 7.77637 3.73503 7.77637 3.95312C7.77637 4.16797 7.70312 4.35026 7.55664 4.5C7.41016 4.64648 7.22461 4.71973 7 4.71973Z" fill="white" fill-opacity="0.4"/>
</svg>
