<svg width="14" height="13" viewBox="0 0 14 13" fill="none" xmlns="http://www.w3.org/2000/svg">
<rect x="0.5" y="0.5" width="13" height="12" rx="1.5" stroke="white" stroke-opacity="0.4"/>
<path d="M7 10.1758C6.40755 10.1758 5.89486 10.0667 5.46191 9.84863C5.02897 9.63053 4.69368 9.32617 4.45605 8.93555C4.22168 8.54492 4.10449 8.09082 4.10449 7.57324V2.9541H5.35938V7.4707C5.35938 7.79297 5.42285 8.07617 5.5498 8.32031C5.68001 8.5612 5.86719 8.75 6.11133 8.88672C6.35547 9.02018 6.65332 9.08691 7.00488 9.08691C7.35319 9.08691 7.64941 9.02018 7.89355 8.88672C8.1377 8.75 8.32324 8.5612 8.4502 8.32031C8.57715 8.07617 8.64062 7.79297 8.64062 7.4707V2.9541H9.89551V7.57324C9.89551 8.09082 9.77832 8.54492 9.54395 8.93555C9.30957 9.32617 8.97591 9.63053 8.54297 9.84863C8.11328 10.0667 7.59896 10.1758 7 10.1758Z" fill="white" fill-opacity="0.4"/>
</svg>
