<svg width="24" height="24" viewBox="0 0 24 24" fill="none" xmlns="http://www.w3.org/2000/svg">
<g clip-path="url(#clip0_553_128)">
<path d="M3.69682 22.0215C3.30064 22.0215 2.96689 21.9527 2.69555 21.8151C2.42549 21.6775 2.22039 21.4686 2.08281 21.1922C1.94523 20.9158 1.87517 20.5782 1.87517 20.1807V16.0877C1.87517 15.5833 1.7758 15.2164 1.57835 14.9871C1.37963 14.7591 1.02803 14.6381 0.523575 14.6266C0.366887 14.6266 0.240772 14.5667 0.145231 14.4457C0.0484155 14.3259 0.00128174 14.1871 0.00128174 14.0317C0.00128174 13.8635 0.0484155 13.7247 0.145231 13.6164C0.240772 13.5081 0.368161 13.4482 0.523575 13.4368C1.02803 13.424 1.37963 13.3043 1.57835 13.0763C1.77708 12.8482 1.87517 12.4865 1.87517 11.9935V7.90047C1.87517 7.29919 2.03185 6.84187 2.34396 6.52977C2.65606 6.21767 3.10701 6.06098 3.69682 6.06098H8.50829C8.68918 6.06098 8.83822 6.11576 8.95924 6.22276C9.07899 6.33104 9.14014 6.4699 9.14014 6.63677C9.14014 6.79346 9.08918 6.92849 8.98727 7.04314C8.88536 7.15779 8.75033 7.21512 8.5809 7.21512H4.11338C3.85988 7.21512 3.66752 7.28136 3.53631 7.41384C3.40383 7.54633 3.33759 7.75015 3.33759 8.02786V12.14C3.33759 12.5005 3.26498 12.8279 3.12103 13.1221C2.97708 13.4177 2.78472 13.6482 2.54396 13.8177C2.30319 13.9858 2.02166 14.0699 1.69682 14.0699V13.9973C2.02166 13.9973 2.30319 14.0814 2.54396 14.2495C2.78472 14.4177 2.97708 14.6495 3.12103 14.9451C3.26498 15.2393 3.33759 15.5667 3.33759 15.9272V20.0572C3.33759 20.3349 3.40383 20.5387 3.53631 20.6712C3.6688 20.8049 3.86115 20.8699 4.11338 20.8699H8.5809C8.74905 20.8699 8.88408 20.9272 8.98727 21.0419C9.09045 21.1565 9.14014 21.2916 9.14014 21.4482C9.14014 21.6049 9.08026 21.7387 8.95924 21.8533C8.83822 21.968 8.68918 22.0253 8.50829 22.0253H3.69682V22.0215Z" fill="black"/>
<path d="M15.4916 22.0216C15.3108 22.0216 15.1617 21.9642 15.0407 21.8496C14.9197 21.7349 14.8598 21.5999 14.8598 21.4445C14.8598 21.2891 14.9108 21.1528 15.0127 21.0381C15.1146 20.9235 15.2496 20.8662 15.419 20.8662H19.8866C20.1401 20.8662 20.3324 20.8012 20.4636 20.6674C20.5961 20.5349 20.6623 20.3311 20.6623 20.0534V15.9235C20.6623 15.563 20.735 15.2356 20.8789 14.9413C21.0229 14.6458 21.2152 14.4152 21.456 14.2458C21.6967 14.0776 21.9783 13.9935 22.3031 13.9935V14.0662C21.9783 14.0662 21.6967 13.9821 21.456 13.8139C21.2152 13.6458 21.0229 13.4139 20.8789 13.1184C20.735 12.8241 20.6623 12.4967 20.6623 12.1362V8.02411C20.6623 7.74768 20.5961 7.54386 20.4636 7.4101C20.3311 7.27762 20.1388 7.21137 19.8866 7.21137H15.419C15.2509 7.21137 15.1159 7.15405 15.0127 7.0394C14.9108 6.92602 14.8598 6.78972 14.8598 6.63303C14.8598 6.46488 14.9197 6.3273 15.0407 6.21902C15.1604 6.11074 15.3108 6.05723 15.4916 6.05723H20.3031C20.8929 6.05723 21.3426 6.21392 21.656 6.52602C21.9694 6.83813 22.1248 7.29545 22.1248 7.89672V11.9897C22.1248 12.4827 22.2241 12.8445 22.4216 13.0725C22.6203 13.3005 22.9719 13.4216 23.4764 13.433C23.633 13.4445 23.7592 13.5044 23.8547 13.6126C23.9515 13.7209 23.9987 13.8598 23.9987 14.0279C23.9987 14.1846 23.9515 14.3222 23.8547 14.4419C23.7592 14.5617 23.6318 14.6228 23.4764 14.6228C22.9719 14.6343 22.6203 14.7553 22.4216 14.9833C22.2229 15.2114 22.1248 15.5783 22.1248 16.084V20.177C22.1248 20.5744 22.056 20.9107 21.9171 21.1884C21.7783 21.4662 21.5745 21.6725 21.3044 21.8114C21.0331 21.949 20.6993 22.0177 20.3031 22.0177H15.4916V22.0216Z" fill="black"/>
<path d="M16.7282 15.5967C17.6045 15.5967 18.3148 14.8863 18.3148 14.01C18.3148 13.1338 17.6045 12.4234 16.7282 12.4234C15.8519 12.4234 15.1416 13.1338 15.1416 14.01C15.1416 14.8863 15.8519 15.5967 16.7282 15.5967Z" fill="black"/>
<path d="M7.84319 15.5967C8.71945 15.5967 9.4298 14.8863 9.4298 14.01C9.4298 13.1338 8.71945 12.4234 7.84319 12.4234C6.96694 12.4234 6.25659 13.1338 6.25659 14.01C6.25659 14.8863 6.96694 15.5967 7.84319 15.5967Z" fill="black"/>
</g>
<path d="M11.4597 1.47095L11.3385 4.7129C11.3385 4.89469 11.1668 4.98558 10.8234 4.98558C10.48 4.98558 10.3083 4.89469 10.3083 4.7129C10.278 3.90493 10.2528 3.27877 10.2326 2.83439C10.2225 2.37991 10.2124 2.05673 10.2023 1.86484C10.1922 1.67294 10.1871 1.5568 10.1871 1.5164C10.1871 1.476 10.1871 1.45581 10.1871 1.45581C10.1871 1.22352 10.3992 1.10737 10.8234 1.10737C11.2476 1.10737 11.4597 1.22857 11.4597 1.47095ZM14.035 1.47095L13.9139 4.7129C13.9139 4.89469 13.7422 4.98558 13.3988 4.98558C13.0554 4.98558 12.8837 4.89469 12.8837 4.7129C12.8534 3.90493 12.8282 3.27877 12.808 2.83439C12.7979 2.37991 12.7878 2.05673 12.7777 1.86484C12.7676 1.67294 12.7625 1.5568 12.7625 1.5164C12.7625 1.476 12.7625 1.45581 12.7625 1.45581C12.7625 1.22352 12.9746 1.10737 13.3988 1.10737C13.823 1.10737 14.035 1.22857 14.035 1.47095Z" fill="black"/>
<defs>
<clipPath id="clip0_553_128">
<rect width="24" height="21.0217" fill="white" transform="translate(0 1)"/>
</clipPath>
</defs>
</svg>
